<?xml version="1.0" encoding="UTF-8" standalone="no"?>
<svg
   xmlns:dc="http://purl.org/dc/elements/1.1/"
   xmlns:cc="http://creativecommons.org/ns#"
   xmlns:rdf="http://www.w3.org/1999/02/22-rdf-syntax-ns#"
   xmlns:svg="http://www.w3.org/2000/svg"
   xmlns="http://www.w3.org/2000/svg"
   xmlns:sodipodi="http://sodipodi.sourceforge.net/DTD/sodipodi-0.dtd"
   xmlns:inkscape="http://www.inkscape.org/namespaces/inkscape"
   width="88mm"
   height="75mm"
   viewBox="0 0 88 75"
   version="1.1"
   id="svg8"
   inkscape:version="1.0.1 (3bc2e813f5, 2020-09-07)"
   sodipodi:docname="Fouling_sensitivity.svg">
  <defs
     id="defs2">
    <clipPath
       clipPathUnits="userSpaceOnUse"
       id="clipEmfPath1">
      <path
         d="M 73.351614,36.384998 H 352.92896 V 261.64063 H 73.351614 Z"
         id="path833" />
    </clipPath>
    <pattern
       id="EMFhbasepattern"
       patternUnits="userSpaceOnUse"
       width="6"
       height="6"
       x="0"
       y="0" />
  </defs>
  <sodipodi:namedview
     id="base"
     pagecolor="#ffffff"
     bordercolor="#666666"
     borderopacity="1.0"
     inkscape:pageopacity="0.0"
     inkscape:pageshadow="2"
     inkscape:zoom="1.979899"
     inkscape:cx="159.14728"
     inkscape:cy="206.40991"
     inkscape:document-units="mm"
     inkscape:current-layer="layer1"
     inkscape:document-rotation="0"
     showgrid="false"
     inkscape:window-width="1267"
     inkscape:window-height="1040"
     inkscape:window-x="2128"
     inkscape:window-y="0"
     inkscape:window-maximized="0" />
  <metadata
     id="metadata5">
    <rdf:RDF>
      <cc:Work
         rdf:about="">
        <dc:format>image/svg+xml</dc:format>
        <dc:type
           rdf:resource="http://purl.org/dc/dcmitype/StillImage" />
        <dc:title></dc:title>
      </cc:Work>
    </rdf:RDF>
  </metadata>
  <g
     inkscape:label="Layer 1"
     inkscape:groupmode="layer"
     id="layer1">
    <path
       style="fill:none;stroke:#000000;stroke-width:0.219188px;stroke-linecap:square;stroke-linejoin:round;stroke-miterlimit:10;stroke-dasharray:none;stroke-opacity:1"
       d="M -7.284812,-5.3227844 M 12.122803,63.886107 h 73.954646"
       id="path839" />
    <path
       style="fill:none;stroke:#000000;stroke-width:0.219188px;stroke-linecap:square;stroke-linejoin:round;stroke-miterlimit:10;stroke-dasharray:none;stroke-opacity:1"
       d="M 12.122803,4.3040796 H 86.077449"
       id="path841" />
    <path
       style="fill:none;stroke:#000000;stroke-width:0.219188px;stroke-linecap:butt;stroke-linejoin:round;stroke-miterlimit:10;stroke-dasharray:none;stroke-opacity:1"
       d="m 21.362917,63.886107 v 0.573227"
       id="path843" />
    <path
       style="fill:none;stroke:#000000;stroke-width:0.219188px;stroke-linecap:butt;stroke-linejoin:round;stroke-miterlimit:10;stroke-dasharray:none;stroke-opacity:1"
       d="m 39.860009,63.886107 v 0.573227"
       id="path845" />
    <path
       style="fill:none;stroke:#000000;stroke-width:0.219188px;stroke-linecap:butt;stroke-linejoin:round;stroke-miterlimit:10;stroke-dasharray:none;stroke-opacity:1"
       d="m 58.340242,63.886107 v 0.573227"
       id="path847" />
    <path
       style="fill:none;stroke:#000000;stroke-width:0.219188px;stroke-linecap:butt;stroke-linejoin:round;stroke-miterlimit:10;stroke-dasharray:none;stroke-opacity:1"
       d="m 76.837334,63.886107 v 0.573227"
       id="path849" />
    <path
       style="fill:none;stroke:#000000;stroke-width:0.219188px;stroke-linecap:butt;stroke-linejoin:round;stroke-miterlimit:10;stroke-dasharray:none;stroke-opacity:1"
       d="m 12.122803,63.886107 v 1.163317"
       id="path851" />
    <path
       style="fill:none;stroke:#000000;stroke-width:0.219188px;stroke-linecap:butt;stroke-linejoin:round;stroke-miterlimit:10;stroke-dasharray:none;stroke-opacity:1"
       d="m 30.619894,63.886107 v 1.163317"
       id="path853" />
    <path
       style="fill:none;stroke:#000000;stroke-width:0.219188px;stroke-linecap:butt;stroke-linejoin:round;stroke-miterlimit:10;stroke-dasharray:none;stroke-opacity:1"
       d="m 49.100124,63.886107 v 1.163317"
       id="path855" />
    <path
       style="fill:none;stroke:#000000;stroke-width:0.219188px;stroke-linecap:butt;stroke-linejoin:round;stroke-miterlimit:10;stroke-dasharray:none;stroke-opacity:1"
       d="m 67.597216,63.886107 v 1.163317"
       id="path857" />
    <path
       style="fill:none;stroke:#000000;stroke-width:0.219188px;stroke-linecap:butt;stroke-linejoin:round;stroke-miterlimit:10;stroke-dasharray:none;stroke-opacity:1"
       d="m 86.077449,63.886107 v 1.163317"
       id="path859" />
    <path
       style="fill:none;stroke:#000000;stroke-width:0.219188px;stroke-linecap:square;stroke-linejoin:round;stroke-miterlimit:10;stroke-dasharray:none;stroke-opacity:1"
       d="M 12.122803,63.886107 V 4.3040796"
       id="path861" />
    <path
       style="fill:none;stroke:#000000;stroke-width:0.219188px;stroke-linecap:square;stroke-linejoin:round;stroke-miterlimit:10;stroke-dasharray:none;stroke-opacity:1"
       d="M 86.077449,63.886107 V 4.3040796"
       id="path863" />
    <path
       style="fill:none;stroke:#000000;stroke-width:0.219188px;stroke-linecap:butt;stroke-linejoin:round;stroke-miterlimit:10;stroke-dasharray:none;stroke-opacity:1"
       d="M 12.122803,57.934649 H 11.549511"
       id="path865" />
    <path
       style="fill:none;stroke:#000000;stroke-width:0.219188px;stroke-linecap:butt;stroke-linejoin:round;stroke-miterlimit:10;stroke-dasharray:none;stroke-opacity:1"
       d="M 12.122803,46.01487 H 11.549511"
       id="path867" />
    <path
       style="fill:none;stroke:#000000;stroke-width:0.219188px;stroke-linecap:butt;stroke-linejoin:round;stroke-miterlimit:10;stroke-dasharray:none;stroke-opacity:1"
       d="M 12.122803,34.095092 H 11.549511"
       id="path869" />
    <path
       style="fill:none;stroke:#000000;stroke-width:0.219188px;stroke-linecap:butt;stroke-linejoin:round;stroke-miterlimit:10;stroke-dasharray:none;stroke-opacity:1"
       d="M 12.122803,22.175317 H 11.549511"
       id="path871" />
    <path
       style="fill:none;stroke:#000000;stroke-width:0.219188px;stroke-linecap:butt;stroke-linejoin:round;stroke-miterlimit:10;stroke-dasharray:none;stroke-opacity:1"
       d="M 12.122803,10.255539 H 11.549511"
       id="path873" />
    <path
       style="fill:none;stroke:#000000;stroke-width:0.219188px;stroke-linecap:butt;stroke-linejoin:round;stroke-miterlimit:10;stroke-dasharray:none;stroke-opacity:1"
       d="M 12.122803,63.886107 H 10.959357"
       id="path875" />
    <path
       style="fill:none;stroke:#000000;stroke-width:0.219188px;stroke-linecap:butt;stroke-linejoin:round;stroke-miterlimit:10;stroke-dasharray:none;stroke-opacity:1"
       d="M 12.122803,51.966329 H 10.959357"
       id="path877" />
    <path
       style="fill:none;stroke:#000000;stroke-width:0.219188px;stroke-linecap:butt;stroke-linejoin:round;stroke-miterlimit:10;stroke-dasharray:none;stroke-opacity:1"
       d="M 12.122803,40.046553 H 10.959357"
       id="path879" />
    <path
       style="fill:none;stroke:#000000;stroke-width:0.219188px;stroke-linecap:butt;stroke-linejoin:round;stroke-miterlimit:10;stroke-dasharray:none;stroke-opacity:1"
       d="M 12.122803,28.143634 H 10.959357"
       id="path881" />
    <path
       style="fill:none;stroke:#000000;stroke-width:0.219188px;stroke-linecap:butt;stroke-linejoin:round;stroke-miterlimit:10;stroke-dasharray:none;stroke-opacity:1"
       d="M 12.122803,16.223857 H 10.959357"
       id="path883" />
    <path
       style="fill:none;stroke:#000000;stroke-width:0.219188px;stroke-linecap:butt;stroke-linejoin:round;stroke-miterlimit:10;stroke-dasharray:none;stroke-opacity:1"
       d="M 12.122803,4.3040796 H 10.959357"
       id="path885" />
    <text
       xml:space="preserve"
       style="font-style:normal;font-variant:normal;font-weight:400;font-size:2.53008px;line-height:125%;font-family:Arial;text-align:start;letter-spacing:0px;word-spacing:0px;text-anchor:start;fill:#000000;fill-opacity:1;stroke:none;stroke-width:0.264583"
       x="11.431479"
       y="67.831268"
       id="text891"><tspan
         sodipodi:role="line"
         x="11.431479"
         y="67.831268"
         id="tspan889"
         style="stroke-width:0.264583"><tspan
           dx="0"
           dy="0"
           style="font-style:normal;font-variant:normal;font-weight:400;font-size:2.53008px;font-family:Arial;fill:#000000;stroke-width:0.264583"
           id="tspan887">0</tspan></tspan></text>
    <text
       xml:space="preserve"
       style="font-style:normal;font-variant:normal;font-weight:400;font-size:2.53008px;line-height:125%;font-family:Arial;text-align:start;letter-spacing:0px;word-spacing:0px;text-anchor:start;fill:#000000;fill-opacity:1;stroke:none;stroke-width:0.264583"
       x="28.866295"
       y="67.831268"
       id="text897"><tspan
         sodipodi:role="line"
         x="28.866295"
         y="67.831268"
         id="tspan895"
         style="stroke-width:0.264583"><tspan
           dx="0"
           dy="0"
           style="font-style:normal;font-variant:normal;font-weight:400;font-size:2.53008px;font-family:Arial;fill:#000000;stroke-width:0.264583"
           id="tspan893">0.5</tspan></tspan></text>
    <text
       xml:space="preserve"
       style="font-style:normal;font-variant:normal;font-weight:400;font-size:2.53008px;line-height:125%;font-family:Arial;text-align:start;letter-spacing:0px;word-spacing:0px;text-anchor:start;fill:#000000;fill-opacity:1;stroke:none;stroke-width:0.264583"
       x="48.408802"
       y="67.831268"
       id="text903"><tspan
         sodipodi:role="line"
         x="48.408802"
         y="67.831268"
         id="tspan901"
         style="stroke-width:0.264583"><tspan
           dx="0"
           dy="0"
           style="font-style:normal;font-variant:normal;font-weight:400;font-size:2.53008px;font-family:Arial;fill:#000000;stroke-width:0.264583"
           id="tspan899">1</tspan></tspan></text>
    <text
       xml:space="preserve"
       style="font-style:normal;font-variant:normal;font-weight:400;font-size:2.53008px;line-height:125%;font-family:Arial;text-align:start;letter-spacing:0px;word-spacing:0px;text-anchor:start;fill:#000000;fill-opacity:1;stroke:none;stroke-width:0.264583"
       x="65.84362"
       y="67.831268"
       id="text909"><tspan
         sodipodi:role="line"
         x="65.84362"
         y="67.831268"
         id="tspan907"
         style="stroke-width:0.264583"><tspan
           dx="0"
           dy="0"
           style="font-style:normal;font-variant:normal;font-weight:400;font-size:2.53008px;font-family:Arial;fill:#000000;stroke-width:0.264583"
           id="tspan905">1.5</tspan></tspan></text>
    <text
       xml:space="preserve"
       style="font-style:normal;font-variant:normal;font-weight:400;font-size:2.53008px;line-height:125%;font-family:Arial;text-align:start;letter-spacing:0px;word-spacing:0px;text-anchor:start;fill:#000000;fill-opacity:1;stroke:none;stroke-width:0.264583"
       x="85.386124"
       y="67.831268"
       id="text915"><tspan
         sodipodi:role="line"
         x="85.386124"
         y="67.831268"
         id="tspan913"
         style="stroke-width:0.264583"><tspan
           dx="0"
           dy="0"
           style="font-style:normal;font-variant:normal;font-weight:400;font-size:2.53008px;font-family:Arial;fill:#000000;stroke-width:0.264583"
           id="tspan911">2</tspan></tspan></text>
    <text
       xml:space="preserve"
       style="font-style:normal;font-variant:normal;font-weight:400;font-size:2.53008px;line-height:125%;font-family:Arial;text-align:start;letter-spacing:0px;word-spacing:0px;text-anchor:start;fill:#000000;fill-opacity:1;stroke:none;stroke-width:0.264583"
       x="8.7504969"
       y="64.644791"
       id="text921"><tspan
         sodipodi:role="line"
         x="8.7504969"
         y="64.644791"
         id="tspan919"
         style="stroke-width:0.264583"><tspan
           dx="0"
           dy="0"
           style="font-style:normal;font-variant:normal;font-weight:400;font-size:2.53008px;font-family:Arial;fill:#000000;stroke-width:0.264583"
           id="tspan917">0</tspan></tspan></text>
    <text
       xml:space="preserve"
       style="font-style:normal;font-variant:normal;font-weight:400;font-size:2.53008px;line-height:125%;font-family:Arial;text-align:start;letter-spacing:0px;word-spacing:0px;text-anchor:start;fill:#000000;fill-opacity:1;stroke:none;stroke-width:0.264583"
       x="5.9514847"
       y="52.725014"
       id="text927"><tspan
         sodipodi:role="line"
         x="5.9514847"
         y="52.725014"
         id="tspan925"
         style="stroke-width:0.264583"><tspan
           dx="0"
           dy="0"
           style="font-style:normal;font-variant:normal;font-weight:400;font-size:2.53008px;font-family:Arial;fill:#000000;stroke-width:0.264583"
           id="tspan923">200</tspan></tspan></text>
    <text
       xml:space="preserve"
       style="font-style:normal;font-variant:normal;font-weight:400;font-size:2.53008px;line-height:125%;font-family:Arial;text-align:start;letter-spacing:0px;word-spacing:0px;text-anchor:start;fill:#000000;fill-opacity:1;stroke:none;stroke-width:0.264583"
       x="5.9514847"
       y="40.805237"
       id="text933"><tspan
         sodipodi:role="line"
         x="5.9514847"
         y="40.805237"
         id="tspan931"
         style="stroke-width:0.264583"><tspan
           dx="0"
           dy="0"
           style="font-style:normal;font-variant:normal;font-weight:400;font-size:2.53008px;font-family:Arial;fill:#000000;stroke-width:0.264583"
           id="tspan929">400</tspan></tspan></text>
    <text
       xml:space="preserve"
       style="font-style:normal;font-variant:normal;font-weight:400;font-size:2.53008px;line-height:125%;font-family:Arial;text-align:start;letter-spacing:0px;word-spacing:0px;text-anchor:start;fill:#000000;fill-opacity:1;stroke:none;stroke-width:0.264583"
       x="5.9514847"
       y="28.902315"
       id="text939"><tspan
         sodipodi:role="line"
         x="5.9514847"
         y="28.902315"
         id="tspan937"
         style="stroke-width:0.264583"><tspan
           dx="0"
           dy="0"
           style="font-style:normal;font-variant:normal;font-weight:400;font-size:2.53008px;font-family:Arial;fill:#000000;stroke-width:0.264583"
           id="tspan935">600</tspan></tspan></text>
    <text
       xml:space="preserve"
       style="font-style:normal;font-variant:normal;font-weight:400;font-size:2.53008px;line-height:125%;font-family:Arial;text-align:start;letter-spacing:0px;word-spacing:0px;text-anchor:start;fill:#000000;fill-opacity:1;stroke:none;stroke-width:0.264583"
       x="5.9514847"
       y="16.982542"
       id="text945"><tspan
         sodipodi:role="line"
         x="5.9514847"
         y="16.982542"
         id="tspan943"
         style="stroke-width:0.264583"><tspan
           dx="0"
           dy="0"
           style="font-style:normal;font-variant:normal;font-weight:400;font-size:2.53008px;font-family:Arial;fill:#000000;stroke-width:0.264583"
           id="tspan941">800</tspan></tspan></text>
    <text
       xml:space="preserve"
       style="font-style:normal;font-variant:normal;font-weight:400;font-size:2.53008px;line-height:125%;font-family:Arial;text-align:start;letter-spacing:0px;word-spacing:0px;text-anchor:start;fill:#000000;fill-opacity:1;stroke:none;stroke-width:0.264583"
       x="4.5519781"
       y="5.0627637"
       id="text951"><tspan
         sodipodi:role="line"
         x="4.5519781"
         y="5.0627637"
         id="tspan949"
         style="stroke-width:0.264583"><tspan
           dx="0"
           dy="0"
           style="font-style:normal;font-variant:normal;font-weight:400;font-size:2.53008px;font-family:Arial;fill:#000000;stroke-width:0.264583"
           id="tspan947">1000</tspan></tspan></text>
    <g
       clip-path="url(#clipEmfPath1)"
       id="g953"
       transform="matrix(0.26458333,0,0,0.26458333,-7.284812,-5.3227844)" />
    <path
       style="fill:none;stroke:#000000;stroke-width:1.08333px;stroke-linecap:round;stroke-linejoin:round;stroke-miterlimit:10;stroke-dasharray:none;stroke-opacity:1"
       clip-path="url(#clipEmfPath1)"
       d="m 73.351614,40.845506 2.549144,19.817398 0.254914,1.975367 0.318643,2.102811 0.254915,2.166532 0.318643,2.230254 0.254914,2.357697 0.382371,2.48514 0.318643,2.48514 0.318643,2.548861 0.382372,2.676305 0.382372,2.676305 0.318643,2.740026 0.4461,2.803747 0.382371,2.803748 0.382372,2.803748 0.4461,2.867469 0.382372,2.867466 0.4461,2.86747 0.4461,2.93119 0.382372,2.86747 0.4461,2.86747 0.4461,2.86747 0.4461,2.80375 0.509829,2.80375 0.4461,2.74002 0.4461,2.67631 0.4461,2.6763 0.509829,2.61258 0.4461,2.48514 0.4461,2.48514 0.446101,2.3577 0.509828,2.29398 0.446101,2.23025 0.4461,2.16653 0.509829,2.10281 0.4461,2.03909 0.4461,1.91165 0.509829,1.91164 0.4461,1.84793 0.4461,1.72048 0.509829,1.72048 0.4461,1.65676 0.4461,1.59304 0.509829,1.52932 0.4461,1.46559 0.4461,1.4656 0.509829,1.40187 0.4461,1.33815 0.4461,1.27443 0.509829,1.27444 0.4461,1.2107 0.4461,1.21071 0.509829,1.14699 0.4461,1.08327 0.446101,1.08326 0.509828,1.08327 0.4461,1.01954 0.446102,0.95583 0.50983,0.95582 0.4461,0.95582 0.4461,0.95583 0.4461,0.8921 0.50983,0.8921 0.4461,0.8921 0.4461,0.82838 0.50983,0.82838 0.4461,0.82838 0.4461,0.76466 0.50982,0.76466 0.44611,0.76466 0.4461,0.76466 0.50982,0.70093 0.4461,0.70094 0.4461,0.70094 0.4461,0.70093 0.50983,0.63722 0.4461,0.70094 0.4461,0.63721 0.50983,0.57349 0.4461,0.63722 0.4461,0.57349 0.50983,0.63722 0.4461,0.57349 0.4461,0.5735 0.4461,0.50977 0.50983,0.57349 0.4461,0.50978 0.4461,0.50977 0.50983,0.57349 0.4461,0.50977 0.4461,0.44605 0.50983,0.50978 0.4461,0.50977 0.4461,0.44605 0.50983,0.44605 0.4461,0.50977 0.4461,0.44605 0.4461,0.44605 0.50983,0.38233 0.4461,0.44605 0.4461,0.44606 0.50983,0.38232 0.4461,0.44606 0.4461,0.38232 0.50983,0.38233 0.4461,0.38233 0.4461,0.38233 0.4461,0.38233 0.50982,0.38233 0.44611,0.38233 0.4461,0.38233 0.50982,0.31861 0.4461,0.38233 0.4461,0.3186 0.50983,0.38233 0.4461,0.31861 0.4461,0.31861 0.50983,0.31861 0.4461,0.3186 0.4461,0.31861 0.4461,0.31861 0.50983,0.31861 0.4461,0.3186 0.4461,0.25489 0.50983,0.31861 0.4461,0.31861 0.4461,0.25488 0.50983,0.31861 0.4461,0.25489 0.4461,0.3186 0.50983,0.25489 0.4461,0.25489 0.4461,0.25488 0.50983,0.25489 0.4461,0.31861 0.4461,0.25488 0.50983,0.25489 0.4461,0.25488 0.4461,0.19117 0.50983,0.25488 0.4461,0.25489 0.4461,0.25489 0.50983,0.25488 0.4461,0.19117 0.4461,0.25488 0.50982,0.19117 0.4461,0.25488 0.4461,0.19117 0.50983,0.25489 0.4461,0.19116 0.4461,0.25489 0.4461,0.19116 0.50983,0.19117 0.4461,0.25488 0.4461,0.19117 0.50983,0.19116 0.4461,0.19117 0.4461,0.19116 0.50983,0.19116 0.4461,0.25489 0.4461,0.19117 0.50983,0.19116 0.4461,0.19116 0.4461,0.12745 0.4461,0.19116 0.50983,0.19117 0.4461,0.19116 0.4461,0.19117 0.50983,0.19116 0.4461,0.12744 0.4461,0.19117 0.50983,0.19116 0.4461,0.19117 0.4461,0.12744 0.4461,0.19117 0.50983,0.12744 0.4461,0.19116 0.4461,0.12745 0.50983,0.19116 0.4461,0.19117 0.4461,0.12744 0.50983,0.12744 0.4461,0.19117 0.4461,0.12744 0.50982,0.19116 0.4461,0.12745 0.4461,0.12744 0.4461,0.19116 0.50983,0.12745 0.4461,0.12744 0.4461,0.12744 0.50983,0.19117 0.4461,0.12744 0.4461,0.12744 0.50983,0.12745 0.4461,0.12744 0.4461,0.19117 0.4461,0.12744 0.50983,0.12744 0.4461,0.12744 0.4461,0.12745 0.50983,0.12744 0.4461,0.12744 0.4461,0.12745 0.50983,0.12744 0.4461,0.12744 0.4461,0.12745 0.4461,0.12744 0.50983,0.12744 0.4461,0.12745 0.4461,0.0637 0.50983,0.12744 0.4461,0.12744 0.4461,0.12745 0.50983,0.12744 0.4461,0.12744 0.4461,0.0637 0.4461,0.12745 0.50983,0.12744 0.4461,0.12744 0.4461,0.0637 0.50983,0.12745 0.4461,0.12744 0.4461,0.0637 0.50982,0.12745 0.4461,0.12744 0.4461,0.0637 0.4461,0.12744 0.50983,0.12745 0.4461,0.0637 0.4461,0.12744 0.50983,0.0637 0.4461,0.12745 0.4461,0.0637 0.50983,0.12744 0.4461,0.0637 0.4461,0.12744 0.50983,0.12745 0.4461,0.0637 0.4461,0.12744 0.4461,0.0637 0.50983,0.0637 0.4461,0.12744 0.4461,0.0637 0.50983,0.12744 0.4461,0.0637 0.4461,0.12745 0.50983,0.0637 0.4461,0.0637 0.4461,0.12744 0.50983,0.0637 0.4461,0.12744 0.4461,0.0637 0.50983,0.0637 0.4461,0.12744 0.4461,0.0637 0.50983,0.0637 0.4461,0.12744 0.4461,0.0637 0.50982,0.0637 0.44611,0.12745 0.4461,0.0637 0.50982,0.0637 0.4461,0.0637 0.4461,0.12744 0.50983,0.0637 0.4461,0.0637 0.4461,0.0637 0.50983,0.0637 0.4461,0.12744 0.4461,0.0637 0.4461,0.0637 0.50983,0.0637 0.4461,0.0637 0.4461,0.12744 0.50983,0.0637 0.4461,0.0637 0.4461,0.0637 0.50983,0.0637 0.4461,0.0637 0.4461,0.0637 0.50983,0.0637 0.4461,0.12745 0.4461,0.0637 0.4461,0.0637 0.50983,0.0637 0.4461,0.0637 0.4461,0.0637 0.50983,0.0637 0.4461,0.0637 0.4461,0.0637 0.50983,0.0637 0.4461,0.0637 0.4461,0.0637 0.4461,0.0637 0.50983,0.0637 0.4461,0.0637 0.4461,0.0637 0.50982,0.0637 0.4461,0.0637 0.44611,0.0637 0.50982,0.0637 0.4461,0.0637 0.4461,0.0637 0.50983,0.0637 0.4461,0.0637 0.4461,0.0637 0.4461,0.0637 0.50983,0.0637 0.4461,0.0637 0.4461,0.0637 0.50983,0.0637 h 0.4461 l 0.4461,0.0637 0.50983,0.0637 0.4461,0.0637 0.4461,0.0637 0.4461,0.0637 0.50983,0.0637 0.4461,0.0637 0.4461,0.0637 0.50983,0.0637 h 0.4461 l 0.4461,0.0637 0.50983,0.0637 0.4461,0.0637 0.4461,0.0637 0.50983,0.0637 h 0.4461 l 0.4461,0.0637 0.4461,0.0637 0.50983,0.0637 0.4461,0.0637 0.4461,0.0637 h 0.50983 l 0.4461,0.0637 0.4461,0.0637 0.50982,0.0637 0.4461,0.0637 h 0.4461 l 0.50983,0.0637 0.4461,0.0637 0.4461,0.0637 0.50983,0.0637 h 0.4461 l 0.4461,0.0637 0.50983,0.0637 0.4461,0.0637 h 0.4461 l 0.50983,0.0637 0.4461,0.0637 0.4461,0.0637 h 0.50983 l 0.4461,0.0637 0.4461,0.0637 0.50983,0.0637 h 0.4461 l 0.4461,0.0637 0.50983,0.0637 0.4461,0.0637 h 0.4461 l 0.4461,0.0637 0.50983,0.0637 h 0.4461 l 0.4461,0.0637 0.50983,0.0637 h 0.4461 l 0.4461,0.0637 0.50983,0.0637 h 0.4461 l 0.4461,0.0637 0.50982,0.0637 0.44611,0.0637 h 0.4461 l 0.4461,0.0637 0.50982,0.0637 h 0.4461 l 0.4461,0.0637 h 0.50983 l 0.4461,0.0637 0.4461,0.0637 h 0.50983 l 0.4461,0.0637 0.4461,0.0637 h 0.4461 l 0.50983,0.0637 0.4461,0.0637 h 0.4461 l 0.50983,0.0637 h 0.4461 l 0.4461,0.0637 0.50983,0.0637 h 0.4461 l 0.4461,0.0637 h 0.50983 l 0.4461,0.0637 h 0.4461 l 0.4461,0.0637 0.50983,0.0637 h 0.4461 l 0.4461,0.0637 h 0.50983 l 0.4461,0.0637 h 0.4461 l 0.50983,0.0637 h 0.4461 l 0.4461,0.0637 0.4461,0.0637 h 0.50983 l 0.4461,0.0637 h 0.4461 l 0.50982,0.0637 h 0.44611 l 0.4461,0.0637 h 0.50982 l 0.4461,0.0637 h 0.4461 l 0.50983,0.0637 h 0.4461 l 0.4461,0.0637 h 0.4461 l 0.50983,0.0637 h 0.4461 l 0.4461,0.0637 h 0.50983 l 0.4461,0.0637 h 0.4461 l 0.50983,0.0637 h 0.4461 l 0.4461,0.0637 h 0.50983 l 0.4461,0.0637 h 0.4461 l 0.50983,0.0637 h 0.4461 l 0.4461,0.0637 h 0.50983 l 0.4461,0.0637 h 0.4461 l 0.50983,0.0637 h 0.4461 l 0.4461,0.0637 h 0.50983 l 0.4461,0.0637 h 0.4461 l 0.50983,0.0637 h 0.4461 l 0.4461,0.0637 h 0.50982 l 0.4461,0.0637 h 0.4461 l 0.4461,0.0637 h 0.50983 l 0.4461,0.0637 h 0.4461 0.50983 l 0.4461,0.0637 h 0.4461 l 0.50983,0.0637 h 0.4461 l 0.4461,0.0637 h 0.50983 l 0.4461,0.0637 h 0.4461 0.4461 l 0.50983,0.0637 h 0.4461 l 0.4461,0.0637 h 0.50983 l 0.4461,0.0637 h 0.4461 0.50983 l 0.4461,0.0637 h 0.4461 l 0.4461,0.0637 h 0.50983 l 0.4461,0.0637 h 0.4461 0.50983 l 0.4461,0.0637 h 0.4461 l 0.50983,0.0637 h 0.4461 0.4461 l 0.50983,0.0637 h 0.4461 l 0.4461,0.0637 h 0.4461 l 0.50982,0.0637 h 0.4461 0.4461 l 0.50983,0.0637 h 0.4461 l 0.4461,0.0637 h 0.50983 0.4461 l 0.4461,0.0637 h 0.4461 l 0.50983,0.0637 h 0.4461 0.4461 l 0.50983,0.0637 h 0.4461 0.4461 l 0.50983,0.0637 h 0.4461 l 0.4461,0.0637 h 0.4461 0.50983 l 0.4461,0.0637 h 0.4461 0.50983 l 0.4461,0.0637 h 0.4461 0.50983 l 0.4461,0.0637 h 0.4461 l 0.4461,0.0637 h 0.50983 0.4461 l 0.4461,0.0637 h 0.50983 0.4461 l 0.4461,0.0637 h 0.50983 0.4461 l 0.4461,0.0637 h 0.4461 0.50982 l 0.4461,0.0637 h 0.4461 0.50983 l 0.4461,0.0637 h 0.4461 0.50983 l 0.4461,0.0637 h 0.4461 0.50983 l 0.4461,0.0637 h 0.4461 0.4461 l 0.50983,0.0637 h 0.4461 0.4461 l 0.50983,0.0637 h 0.4461 0.4461 l 0.50983,0.0637 h 0.4461 0.4461 l 0.50983,0.0637 h 0.4461 0.4461 l 0.50983,0.0637 h 0.4461 0.4461 l 0.50983,0.0637 h 0.4461 0.4461 l 0.50983,0.0637 h 0.4461 0.4461 l 0.50982,0.0637 h 0.44611 0.4461 0.50982 l 0.4461,0.0637 h 0.4461 0.50983 l 0.4461,0.0637 h 0.4461 0.4461 l 0.50983,0.0637 h 0.4461 0.4461 0.4461 l 0.50983,0.0637 h 0.4461 0.4461 l 0.4461,0.0637 h 0.38237 0.4461 0.4461 l 0.38238,0.0637 h 0.4461 0.38237 0.38237 0.4461 l 0.31864,0.0637 h 0.38237 0.38238 0.31864 l 0.31864,0.0637 h 0.38237 0.25492 0.31864 0.25491 0.31865 l 0.25491,0.0637 h 0.25492 l 2.29423,0.0637"
       id="path955"
       transform="matrix(0.26458333,0,0,0.26458333,-7.284812,-5.3227844)" />
    <g
       clip-path="url(#clipEmfPath1)"
       id="g957"
       transform="matrix(0.26458333,0,0,0.26458333,-7.284812,-5.3227844)" />
    <g
       clip-path="url(#clipEmfPath1)"
       id="g959"
       transform="matrix(0.26458333,0,0,0.26458333,-7.284812,-5.3227844)" />
    <g
       clip-path="url(#clipEmfPath1)"
       id="g961"
       transform="matrix(0.26458333,0,0,0.26458333,-7.284812,-5.3227844)" />
    <path
       style="fill:none;stroke:none"
       clip-path="url(#clipEmfPath1)"
       d="m 70.929927,38.424087 h 4.907102 v 4.906558 h -4.907102 z"
       id="path963"
       transform="matrix(0.26458333,0,0,0.26458333,-7.284812,-5.3227844)" />
    <path
       style="fill:none;stroke:none"
       clip-path="url(#clipEmfPath1)"
       d="m 84.88649,146.24093 h 4.907102 v 4.90656 H 84.88649 Z"
       id="path965"
       transform="matrix(0.26458333,0,0,0.26458333,-7.284812,-5.3227844)" />
    <path
       style="fill:none;stroke:none"
       clip-path="url(#clipEmfPath1)"
       d="m 98.906781,183.64547 h 4.907099 v 4.90656 h -4.907099 z"
       id="path967"
       transform="matrix(0.26458333,0,0,0.26458333,-7.284812,-5.3227844)" />
    <path
       style="fill:none;stroke:none"
       clip-path="url(#clipEmfPath1)"
       d="m 112.86334,202.44332 h 4.90711 v 4.90656 h -4.90711 z"
       id="path969"
       transform="matrix(0.26458333,0,0,0.26458333,-7.284812,-5.3227844)" />
    <path
       style="fill:none;stroke:none"
       clip-path="url(#clipEmfPath1)"
       d="m 126.81991,213.78576 h 4.9071 v 4.90656 h -4.9071 z"
       id="path971"
       transform="matrix(0.26458333,0,0,0.26458333,-7.284812,-5.3227844)" />
    <path
       style="fill:none;stroke:none"
       clip-path="url(#clipEmfPath1)"
       d="m 140.8402,221.36862 h 4.9071 v 4.90656 h -4.9071 z"
       id="path973"
       transform="matrix(0.26458333,0,0,0.26458333,-7.284812,-5.3227844)" />
    <path
       style="fill:none;stroke:none"
       clip-path="url(#clipEmfPath1)"
       d="m 154.79676,226.78495 h 4.9071 v 4.90656 h -4.9071 z"
       id="path975"
       transform="matrix(0.26458333,0,0,0.26458333,-7.284812,-5.3227844)" />
    <path
       style="fill:none;stroke:none"
       clip-path="url(#clipEmfPath1)"
       d="m 168.75332,230.86313 h 4.9071 v 4.90656 h -4.9071 z"
       id="path977"
       transform="matrix(0.26458333,0,0,0.26458333,-7.284812,-5.3227844)" />
    <path
       style="fill:none;stroke:none"
       clip-path="url(#clipEmfPath1)"
       d="m 182.70988,233.98549 h 4.90711 v 4.90655 h -4.90711 z"
       id="path979"
       transform="matrix(0.26458333,0,0,0.26458333,-7.284812,-5.3227844)" />
    <path
       style="fill:none;stroke:none"
       clip-path="url(#clipEmfPath1)"
       d="m 196.73018,236.53435 h 4.9071 v 4.90656 h -4.9071 z"
       id="path981"
       transform="matrix(0.26458333,0,0,0.26458333,-7.284812,-5.3227844)" />
    <path
       style="fill:none;stroke:none"
       clip-path="url(#clipEmfPath1)"
       d="m 210.68674,238.57344 h 4.9071 v 4.90655 h -4.9071 z"
       id="path983"
       transform="matrix(0.26458333,0,0,0.26458333,-7.284812,-5.3227844)" />
    <path
       style="fill:none;stroke:none"
       clip-path="url(#clipEmfPath1)"
       d="m 224.6433,240.29392 h 4.9071 v 4.90656 h -4.9071 z"
       id="path985"
       transform="matrix(0.26458333,0,0,0.26458333,-7.284812,-5.3227844)" />
    <path
       style="fill:none;stroke:none"
       clip-path="url(#clipEmfPath1)"
       d="m 238.66359,241.75951 h 4.9071 v 4.90656 h -4.9071 z"
       id="path987"
       transform="matrix(0.26458333,0,0,0.26458333,-7.284812,-5.3227844)" />
    <path
       style="fill:none;stroke:none"
       clip-path="url(#clipEmfPath1)"
       d="m 252.62015,243.03394 h 4.90711 v 4.90656 h -4.90711 z"
       id="path989"
       transform="matrix(0.26458333,0,0,0.26458333,-7.284812,-5.3227844)" />
    <path
       style="fill:none;stroke:none"
       clip-path="url(#clipEmfPath1)"
       d="m 266.57672,244.05349 h 4.9071 v 4.90656 h -4.9071 z"
       id="path991"
       transform="matrix(0.26458333,0,0,0.26458333,-7.284812,-5.3227844)" />
    <path
       style="fill:none;stroke:none"
       clip-path="url(#clipEmfPath1)"
       d="m 280.59701,245.00931 h 4.9071 v 4.90656 h -4.9071 z"
       id="path993"
       transform="matrix(0.26458333,0,0,0.26458333,-7.284812,-5.3227844)" />
    <path
       style="fill:none;stroke:none"
       clip-path="url(#clipEmfPath1)"
       d="m 294.55357,245.83769 h 4.9071 v 4.90656 h -4.9071 z"
       id="path995"
       transform="matrix(0.26458333,0,0,0.26458333,-7.284812,-5.3227844)" />
    <path
       style="fill:none;stroke:none"
       clip-path="url(#clipEmfPath1)"
       d="m 308.51013,246.60235 h 4.9071 v 4.90656 h -4.9071 z"
       id="path997"
       transform="matrix(0.26458333,0,0,0.26458333,-7.284812,-5.3227844)" />
    <path
       style="fill:none;stroke:none"
       clip-path="url(#clipEmfPath1)"
       d="m 322.4667,247.23957 h 4.9071 v 4.90655 h -4.9071 z"
       id="path999"
       transform="matrix(0.26458333,0,0,0.26458333,-7.284812,-5.3227844)" />
    <path
       style="fill:none;stroke:none"
       clip-path="url(#clipEmfPath1)"
       d="m 336.48699,247.87678 h 4.9071 v 4.90656 h -4.9071 z"
       id="path1001"
       transform="matrix(0.26458333,0,0,0.26458333,-7.284812,-5.3227844)" />
    <path
       style="fill:none;stroke:none"
       clip-path="url(#clipEmfPath1)"
       d="m 350.44355,248.38655 h 4.9071 v 4.90656 h -4.9071 z"
       id="path1003"
       transform="matrix(0.26458333,0,0,0.26458333,-7.284812,-5.3227844)" />
    <text
       xml:space="preserve"
       style="font-style:normal;font-variant:normal;font-weight:400;font-size:3.10885px;line-height:125%;font-family:Arial;text-align:start;letter-spacing:0px;word-spacing:0px;text-anchor:start;fill:#000000;fill-opacity:1;stroke:none;stroke-width:0.264583"
       transform="rotate(-90)"
       x="-43.216167"
       y="3.2705021"
       id="text1017"><tspan
         sodipodi:role="line"
         x="-43.216167"
         y="3.2705021"
         id="tspan1015"
         style="stroke-width:0.264583"><tspan
           dx="0"
           dy="0"
           style="font-style:normal;font-variant:normal;font-weight:400;font-size:3.10885px;font-family:Arial;fill:#000000;stroke-width:0.264583"
           id="tspan1005">U (W m</tspan><tspan
           dx="0"
           dy="-1.2646143"
           style="font-style:normal;font-variant:normal;font-weight:400;font-size:2.10013px;font-family:Arial;fill:#000000;stroke-width:0.264583"
           id="tspan1007">-2</tspan><tspan
           dx="0"
           dy="1.2646143"
           style="font-style:normal;font-variant:normal;font-weight:400;font-size:3.10885px;font-family:Arial;fill:#000000;stroke-width:0.264583"
           id="tspan1009"> K</tspan><tspan
           dx="0"
           dy="-1.2646143"
           style="font-style:normal;font-variant:normal;font-weight:400;font-size:2.10013px;font-family:Arial;fill:#000000;stroke-width:0.264583"
           id="tspan1011">-1</tspan><tspan
           dx="0"
           dy="1.2646143"
           style="font-style:normal;font-variant:normal;font-weight:400;font-size:3.10885px;font-family:Arial;fill:#000000;stroke-width:0.264583"
           id="tspan1013">)</tspan></tspan></text>
    <text
       xml:space="preserve"
       style="font-style:normal;font-variant:normal;font-weight:400;font-size:3.10885px;line-height:125%;font-family:Arial;text-align:start;letter-spacing:0px;word-spacing:0px;text-anchor:start;fill:#000000;fill-opacity:1;stroke:none;stroke-width:0.264583"
       x="48.324493"
       y="72.602547"
       id="text1023"><tspan
         x="48.324493"
         y="72.602547"
         id="tspan1021"
         style="stroke-width:0.264583"
         sodipodi:role="line"><tspan
           dx="0"
           dy="0"
           style="font-style:normal;font-variant:normal;font-weight:400;font-size:3.10885px;font-family:Arial;fill:#000000;stroke-width:0.264583"
           id="tspan1019">l<tspan
   style="font-size:65%;baseline-shift:sub"
   id="tspan1127">f </tspan></tspan></tspan></text>
    <text
       xml:space="preserve"
       style="font-style:normal;font-variant:normal;font-weight:400;font-size:3.10885px;line-height:125%;font-family:Arial;text-align:start;letter-spacing:0px;word-spacing:0px;text-anchor:start;fill:#000000;fill-opacity:1;stroke:none;stroke-width:0.264583"
       x="51.223408"
       y="72.496857"
       id="text1023-7"><tspan
         x="51.223408"
         y="72.496857"
         id="tspan1021-1"
         style="font-style:normal;font-variant:normal;font-weight:400;font-family:Arial;baseline-shift:baseline;fill:#000000;stroke-width:0.264583"
         sodipodi:role="line">(mm) </tspan></text>
  </g>
</svg>
