<?xml version="1.0" encoding="UTF-8" standalone="no"?>
<svg
   xmlns:dc="http://purl.org/dc/elements/1.1/"
   xmlns:cc="http://creativecommons.org/ns#"
   xmlns:rdf="http://www.w3.org/1999/02/22-rdf-syntax-ns#"
   xmlns:svg="http://www.w3.org/2000/svg"
   xmlns="http://www.w3.org/2000/svg"
   xmlns:sodipodi="http://sodipodi.sourceforge.net/DTD/sodipodi-0.dtd"
   xmlns:inkscape="http://www.inkscape.org/namespaces/inkscape"
   width="90mm"
   height="76mm"
   viewBox="0 0 90 76"
   version="1.1"
   id="svg8"
   inkscape:version="1.0.1 (3bc2e813f5, 2020-09-07)"
   sodipodi:docname="Recovery_vs_volume_crystalliser.svg">
  <defs
     id="defs2">
    <clipPath
       clipPathUnits="userSpaceOnUse"
       id="clipEmfPath1">
      <path
         d="M 73.351614,36.384998 H 352.92896 V 261.64063 H 73.351614 Z"
         id="path10" />
    </clipPath>
    <pattern
       id="EMFhbasepattern"
       patternUnits="userSpaceOnUse"
       width="6"
       height="6"
       x="0"
       y="0" />
  </defs>
  <sodipodi:namedview
     id="base"
     pagecolor="#ffffff"
     bordercolor="#666666"
     borderopacity="1.0"
     inkscape:pageopacity="0.0"
     inkscape:pageshadow="2"
     inkscape:zoom="1.979899"
     inkscape:cx="281.66589"
     inkscape:cy="161.9128"
     inkscape:document-units="mm"
     inkscape:current-layer="layer1"
     inkscape:document-rotation="0"
     showgrid="false"
     inkscape:window-width="1920"
     inkscape:window-height="1017"
     inkscape:window-x="1912"
     inkscape:window-y="-8"
     inkscape:window-maximized="1" />
  <metadata
     id="metadata5">
    <rdf:RDF>
      <cc:Work
         rdf:about="">
        <dc:format>image/svg+xml</dc:format>
        <dc:type
           rdf:resource="http://purl.org/dc/dcmitype/StillImage" />
        <dc:title></dc:title>
      </cc:Work>
    </rdf:RDF>
  </metadata>
  <g
     inkscape:label="Layer 1"
     inkscape:groupmode="layer"
     id="layer1">
    <path
       style="fill:none;stroke:#000000;stroke-width:0.219188px;stroke-linecap:square;stroke-linejoin:round;stroke-miterlimit:10;stroke-dasharray:none;stroke-opacity:1"
       d="M -4.2400722,-6.0665613 M 15.167542,63.14233 h 73.954647"
       id="path16" />
    <path
       style="fill:none;stroke:#000000;stroke-width:0.219188px;stroke-linecap:square;stroke-linejoin:round;stroke-miterlimit:10;stroke-dasharray:none;stroke-opacity:1"
       d="M 15.167542,3.5603032 H 89.122189"
       id="path18" />
    <path
       style="fill:none;stroke:#000000;stroke-width:0.219188px;stroke-linecap:butt;stroke-linejoin:round;stroke-miterlimit:10;stroke-dasharray:none;stroke-opacity:1"
       d="m 15.167542,63.14233 v 0.573227"
       id="path20" />
    <path
       style="fill:none;stroke:#000000;stroke-width:0.219188px;stroke-linecap:butt;stroke-linejoin:round;stroke-miterlimit:10;stroke-dasharray:none;stroke-opacity:1"
       d="m 17.056032,63.14233 v 0.573227"
       id="path22" />
    <path
       style="fill:none;stroke:#000000;stroke-width:0.219188px;stroke-linecap:butt;stroke-linejoin:round;stroke-miterlimit:10;stroke-dasharray:none;stroke-opacity:1"
       d="m 18.6916,63.14233 v 0.573227"
       id="path24" />
    <path
       style="fill:none;stroke:#000000;stroke-width:0.219188px;stroke-linecap:butt;stroke-linejoin:round;stroke-miterlimit:10;stroke-dasharray:none;stroke-opacity:1"
       d="m 20.141691,63.14233 v 0.573227"
       id="path26" />
    <path
       style="fill:none;stroke:#000000;stroke-width:0.219188px;stroke-linecap:butt;stroke-linejoin:round;stroke-miterlimit:10;stroke-dasharray:none;stroke-opacity:1"
       d="m 29.921377,63.14233 v 0.573227"
       id="path28" />
    <path
       style="fill:none;stroke:#000000;stroke-width:0.219188px;stroke-linecap:butt;stroke-linejoin:round;stroke-miterlimit:10;stroke-dasharray:none;stroke-opacity:1"
       d="m 34.895526,63.14233 v 0.573227"
       id="path30" />
    <path
       style="fill:none;stroke:#000000;stroke-width:0.219188px;stroke-linecap:butt;stroke-linejoin:round;stroke-miterlimit:10;stroke-dasharray:none;stroke-opacity:1"
       d="m 38.419585,63.14233 v 0.573227"
       id="path32" />
    <path
       style="fill:none;stroke:#000000;stroke-width:0.219188px;stroke-linecap:butt;stroke-linejoin:round;stroke-miterlimit:10;stroke-dasharray:none;stroke-opacity:1"
       d="m 41.168013,63.14233 v 0.573227"
       id="path34" />
    <path
       style="fill:none;stroke:#000000;stroke-width:0.219188px;stroke-linecap:butt;stroke-linejoin:round;stroke-miterlimit:10;stroke-dasharray:none;stroke-opacity:1"
       d="m 43.393733,63.14233 v 0.573227"
       id="path36" />
    <path
       style="fill:none;stroke:#000000;stroke-width:0.219188px;stroke-linecap:butt;stroke-linejoin:round;stroke-miterlimit:10;stroke-dasharray:none;stroke-opacity:1"
       d="m 45.282226,63.14233 v 0.573227"
       id="path38" />
    <path
       style="fill:none;stroke:#000000;stroke-width:0.219188px;stroke-linecap:butt;stroke-linejoin:round;stroke-miterlimit:10;stroke-dasharray:none;stroke-opacity:1"
       d="m 46.917793,63.14233 v 0.573227"
       id="path40" />
    <path
       style="fill:none;stroke:#000000;stroke-width:0.219188px;stroke-linecap:butt;stroke-linejoin:round;stroke-miterlimit:10;stroke-dasharray:none;stroke-opacity:1"
       d="m 48.367884,63.14233 v 0.573227"
       id="path42" />
    <path
       style="fill:none;stroke:#000000;stroke-width:0.219188px;stroke-linecap:butt;stroke-linejoin:round;stroke-miterlimit:10;stroke-dasharray:none;stroke-opacity:1"
       d="m 58.164429,63.14233 v 0.573227"
       id="path44" />
    <path
       style="fill:none;stroke:#000000;stroke-width:0.219188px;stroke-linecap:butt;stroke-linejoin:round;stroke-miterlimit:10;stroke-dasharray:none;stroke-opacity:1"
       d="m 63.121718,63.14233 v 0.573227"
       id="path46" />
    <path
       style="fill:none;stroke:#000000;stroke-width:0.219188px;stroke-linecap:butt;stroke-linejoin:round;stroke-miterlimit:10;stroke-dasharray:none;stroke-opacity:1"
       d="m 66.662639,63.14233 v 0.573227"
       id="path48" />
    <path
       style="fill:none;stroke:#000000;stroke-width:0.219188px;stroke-linecap:butt;stroke-linejoin:round;stroke-miterlimit:10;stroke-dasharray:none;stroke-opacity:1"
       d="m 69.394205,63.14233 v 0.573227"
       id="path50" />
    <path
       style="fill:none;stroke:#000000;stroke-width:0.219188px;stroke-linecap:butt;stroke-linejoin:round;stroke-miterlimit:10;stroke-dasharray:none;stroke-opacity:1"
       d="m 71.619925,63.14233 v 0.573227"
       id="path52" />
    <path
       style="fill:none;stroke:#000000;stroke-width:0.219188px;stroke-linecap:butt;stroke-linejoin:round;stroke-miterlimit:10;stroke-dasharray:none;stroke-opacity:1"
       d="m 73.508418,63.14233 v 0.573227"
       id="path54" />
    <path
       style="fill:none;stroke:#000000;stroke-width:0.219188px;stroke-linecap:butt;stroke-linejoin:round;stroke-miterlimit:10;stroke-dasharray:none;stroke-opacity:1"
       d="m 75.160847,63.14233 v 0.573227"
       id="path56" />
    <path
       style="fill:none;stroke:#000000;stroke-width:0.219188px;stroke-linecap:butt;stroke-linejoin:round;stroke-miterlimit:10;stroke-dasharray:none;stroke-opacity:1"
       d="m 76.594076,63.14233 v 0.573227"
       id="path58" />
    <path
       style="fill:none;stroke:#000000;stroke-width:0.219188px;stroke-linecap:butt;stroke-linejoin:round;stroke-miterlimit:10;stroke-dasharray:none;stroke-opacity:1"
       d="m 86.39062,63.14233 v 0.573227"
       id="path60" />
    <path
       style="fill:none;stroke:#000000;stroke-width:0.219188px;stroke-linecap:butt;stroke-linejoin:round;stroke-miterlimit:10;stroke-dasharray:none;stroke-opacity:1"
       d="m 21.423167,63.14233 v 1.163317"
       id="path62" />
    <path
       style="fill:none;stroke:#000000;stroke-width:0.219188px;stroke-linecap:butt;stroke-linejoin:round;stroke-miterlimit:10;stroke-dasharray:none;stroke-opacity:1"
       d="m 49.666221,63.14233 v 1.163317"
       id="path64" />
    <path
       style="fill:none;stroke:#000000;stroke-width:0.219188px;stroke-linecap:butt;stroke-linejoin:round;stroke-miterlimit:10;stroke-dasharray:none;stroke-opacity:1"
       d="m 77.892413,63.14233 v 1.163317"
       id="path66" />
    <path
       style="fill:none;stroke:#000000;stroke-width:0.219188px;stroke-linecap:square;stroke-linejoin:round;stroke-miterlimit:10;stroke-dasharray:none;stroke-opacity:1"
       d="M 15.167542,63.14233 V 3.5603032"
       id="path68" />
    <path
       style="fill:none;stroke:#000000;stroke-width:0.219188px;stroke-linecap:square;stroke-linejoin:round;stroke-miterlimit:10;stroke-dasharray:none;stroke-opacity:1"
       d="M 89.122189,63.14233 V 3.5603032"
       id="path70" />
    <path
       style="fill:none;stroke:#000000;stroke-width:0.219188px;stroke-linecap:butt;stroke-linejoin:round;stroke-miterlimit:10;stroke-dasharray:none;stroke-opacity:1"
       d="M 15.167542,56.516486 H 14.59425"
       id="path72" />
    <path
       style="fill:none;stroke:#000000;stroke-width:0.219188px;stroke-linecap:butt;stroke-linejoin:round;stroke-miterlimit:10;stroke-dasharray:none;stroke-opacity:1"
       d="M 15.167542,43.281654 H 14.59425"
       id="path74" />
    <path
       style="fill:none;stroke:#000000;stroke-width:0.219188px;stroke-linecap:butt;stroke-linejoin:round;stroke-miterlimit:10;stroke-dasharray:none;stroke-opacity:1"
       d="M 15.167542,30.046823 H 14.59425"
       id="path76" />
    <path
       style="fill:none;stroke:#000000;stroke-width:0.219188px;stroke-linecap:butt;stroke-linejoin:round;stroke-miterlimit:10;stroke-dasharray:none;stroke-opacity:1"
       d="M 15.167542,16.795134 H 14.59425"
       id="path78" />
    <path
       style="fill:none;stroke:#000000;stroke-width:0.219188px;stroke-linecap:butt;stroke-linejoin:round;stroke-miterlimit:10;stroke-dasharray:none;stroke-opacity:1"
       d="M 15.167542,3.5603032 H 14.59425"
       id="path80" />
    <path
       style="fill:none;stroke:#000000;stroke-width:0.219188px;stroke-linecap:butt;stroke-linejoin:round;stroke-miterlimit:10;stroke-dasharray:none;stroke-opacity:1"
       d="M 15.167542,63.14233 H 14.004096"
       id="path82" />
    <path
       style="fill:none;stroke:#000000;stroke-width:0.219188px;stroke-linecap:butt;stroke-linejoin:round;stroke-miterlimit:10;stroke-dasharray:none;stroke-opacity:1"
       d="M 15.167542,49.907498 H 14.004096"
       id="path84" />
    <path
       style="fill:none;stroke:#000000;stroke-width:0.219188px;stroke-linecap:butt;stroke-linejoin:round;stroke-miterlimit:10;stroke-dasharray:none;stroke-opacity:1"
       d="M 15.167542,36.65581 H 14.004096"
       id="path86" />
    <path
       style="fill:none;stroke:#000000;stroke-width:0.219188px;stroke-linecap:butt;stroke-linejoin:round;stroke-miterlimit:10;stroke-dasharray:none;stroke-opacity:1"
       d="M 15.167542,23.420979 H 14.004096"
       id="path88" />
    <path
       style="fill:none;stroke:#000000;stroke-width:0.219188px;stroke-linecap:butt;stroke-linejoin:round;stroke-miterlimit:10;stroke-dasharray:none;stroke-opacity:1"
       d="M 15.167542,10.186148 H 14.004096"
       id="path90" />
    <text
       xml:space="preserve"
       style="font-style:normal;font-variant:normal;font-weight:400;font-size:2.53008px;line-height:125%;font-family:Arial;text-align:start;letter-spacing:0px;word-spacing:0px;text-anchor:start;fill:#000000;fill-opacity:1;stroke:none;stroke-width:0.264583"
       x="18.270063"
       y="67.087494"
       id="text96"><tspan
         sodipodi:role="line"
         x="18.270063"
         y="67.087494"
         id="tspan94"
         style="stroke-width:0.264583"><tspan
           dx="0"
           dy="0"
           style="font-style:normal;font-variant:normal;font-weight:400;font-size:2.53008px;font-family:Arial;fill:#000000;stroke-width:0.264583"
           id="tspan92">0.001</tspan></tspan></text>
    <text
       xml:space="preserve"
       style="font-style:normal;font-variant:normal;font-weight:400;font-size:2.53008px;line-height:125%;font-family:Arial;text-align:start;letter-spacing:0px;word-spacing:0px;text-anchor:start;fill:#000000;fill-opacity:1;stroke:none;stroke-width:0.264583"
       x="47.221302"
       y="67.087494"
       id="text102"><tspan
         sodipodi:role="line"
         x="47.221302"
         y="67.087494"
         id="tspan100"
         style="stroke-width:0.264583"><tspan
           dx="0"
           dy="0"
           style="font-style:normal;font-variant:normal;font-weight:400;font-size:2.53008px;font-family:Arial;fill:#000000;stroke-width:0.264583"
           id="tspan98">0.01</tspan></tspan></text>
    <text
       xml:space="preserve"
       style="font-style:normal;font-variant:normal;font-weight:400;font-size:2.53008px;line-height:125%;font-family:Arial;text-align:start;letter-spacing:0px;word-spacing:0px;text-anchor:start;fill:#000000;fill-opacity:1;stroke:none;stroke-width:0.264583"
       x="76.138809"
       y="67.087494"
       id="text108"><tspan
         sodipodi:role="line"
         x="76.138809"
         y="67.087494"
         id="tspan106"
         style="stroke-width:0.264583"><tspan
           dx="0"
           dy="0"
           style="font-style:normal;font-variant:normal;font-weight:400;font-size:2.53008px;font-family:Arial;fill:#000000;stroke-width:0.264583"
           id="tspan104">0.1</tspan></tspan></text>
    <text
       xml:space="preserve"
       style="font-style:normal;font-variant:normal;font-weight:400;font-size:2.53008px;line-height:125%;font-family:Arial;text-align:start;letter-spacing:0px;word-spacing:0px;text-anchor:start;fill:#000000;fill-opacity:1;stroke:none;stroke-width:0.264583"
       x="5.489027"
       y="63.901012"
       id="text114"><tspan
         sodipodi:role="line"
         x="5.489027"
         y="63.901012"
         id="tspan112"
         style="stroke-width:0.264583"><tspan
           dx="0"
           dy="0"
           style="font-style:normal;font-variant:normal;font-weight:400;font-size:2.53008px;font-family:Arial;fill:#000000;stroke-width:0.264583"
           id="tspan110">0.9053</tspan></tspan></text>
    <text
       xml:space="preserve"
       style="font-style:normal;font-variant:normal;font-weight:400;font-size:2.53008px;line-height:125%;font-family:Arial;text-align:start;letter-spacing:0px;word-spacing:0px;text-anchor:start;fill:#000000;fill-opacity:1;stroke:none;stroke-width:0.264583"
       x="5.489027"
       y="50.666183"
       id="text120"><tspan
         sodipodi:role="line"
         x="5.489027"
         y="50.666183"
         id="tspan118"
         style="stroke-width:0.264583"><tspan
           dx="0"
           dy="0"
           style="font-style:normal;font-variant:normal;font-weight:400;font-size:2.53008px;font-family:Arial;fill:#000000;stroke-width:0.264583"
           id="tspan116">0.9054</tspan></tspan></text>
    <text
       xml:space="preserve"
       style="font-style:normal;font-variant:normal;font-weight:400;font-size:2.53008px;line-height:125%;font-family:Arial;text-align:start;letter-spacing:0px;word-spacing:0px;text-anchor:start;fill:#000000;fill-opacity:1;stroke:none;stroke-width:0.264583"
       x="5.489027"
       y="37.414494"
       id="text126"><tspan
         sodipodi:role="line"
         x="5.489027"
         y="37.414494"
         id="tspan124"
         style="stroke-width:0.264583"><tspan
           dx="0"
           dy="0"
           style="font-style:normal;font-variant:normal;font-weight:400;font-size:2.53008px;font-family:Arial;fill:#000000;stroke-width:0.264583"
           id="tspan122">0.9055</tspan></tspan></text>
    <text
       xml:space="preserve"
       style="font-style:normal;font-variant:normal;font-weight:400;font-size:2.53008px;line-height:125%;font-family:Arial;text-align:start;letter-spacing:0px;word-spacing:0px;text-anchor:start;fill:#000000;fill-opacity:1;stroke:none;stroke-width:0.264583"
       x="5.489027"
       y="24.179661"
       id="text132"><tspan
         sodipodi:role="line"
         x="5.489027"
         y="24.179661"
         id="tspan130"
         style="stroke-width:0.264583"><tspan
           dx="0"
           dy="0"
           style="font-style:normal;font-variant:normal;font-weight:400;font-size:2.53008px;font-family:Arial;fill:#000000;stroke-width:0.264583"
           id="tspan128">0.9056</tspan></tspan></text>
    <text
       xml:space="preserve"
       style="font-style:normal;font-variant:normal;font-weight:400;font-size:2.53008px;line-height:125%;font-family:Arial;text-align:start;letter-spacing:0px;word-spacing:0px;text-anchor:start;fill:#000000;fill-opacity:1;stroke:none;stroke-width:0.264583"
       x="5.489027"
       y="10.944832"
       id="text138"><tspan
         sodipodi:role="line"
         x="5.489027"
         y="10.944832"
         id="tspan136"
         style="stroke-width:0.264583"><tspan
           dx="0"
           dy="0"
           style="font-style:normal;font-variant:normal;font-weight:400;font-size:2.53008px;font-family:Arial;fill:#000000;stroke-width:0.264583"
           id="tspan134">0.9057</tspan></tspan></text>
    <g
       clip-path="url(#clipEmfPath1)"
       id="g140"
       transform="matrix(0.26458333,0,0,0.26458333,-4.2400722,-6.0665613)" />
    <path
       style="fill:none;stroke:#006bac;stroke-width:1.08333px;stroke-linecap:round;stroke-linejoin:round;stroke-miterlimit:10;stroke-dasharray:none;stroke-opacity:1"
       clip-path="url(#clipEmfPath1)"
       d="m 77.940073,278.08079 1.656943,-25.87094 0.191186,-2.61259 0.127457,-2.6763 0.191186,-2.86747 0.191186,-2.93119 0.191186,-3.05864 0.191185,-3.18607 0.254915,-3.31352 0.191186,-3.31352 0.254914,-3.44097 0.254914,-3.50468 0.191186,-3.56841 0.254915,-3.63212 0.254914,-3.69585 0.254914,-3.69585 0.254915,-3.69585 0.318643,-3.75957 0.254914,-3.75957 0.254914,-3.75957 0.254915,-3.75957 0.318643,-3.69585 0.254914,-3.69585 0.318643,-3.69585 0.254915,-3.63213 0.318643,-3.56841 0.254914,-3.50468 0.318643,-3.44096 0.254914,-3.37724 0.318643,-3.2498 0.318643,-3.18608 0.254915,-3.05863 0.318643,-2.99492 0.254914,-2.86747 0.318643,-2.80374 0.254914,-2.67631 0.318643,-2.54886 0.254915,-2.54886 0.318643,-2.42142 0.254914,-2.29397 0.318643,-2.29398 0.254914,-2.16653 0.254915,-2.10281 0.318643,-1.97537 0.254914,-1.97537 0.318643,-1.84792 0.254915,-1.84793 0.254914,-1.72048 0.318643,-1.72048 0.254914,-1.59304 0.318643,-1.59304 0.254915,-1.46559 0.254914,-1.4656 0.318643,-1.40187 0.254914,-1.40188 0.254915,-1.27443 0.318643,-1.274427 0.254914,-1.210709 0.254915,-1.210709 0.318643,-1.146988 0.254914,-1.146988 0.254914,-1.083266 0.254915,-1.083266 0.318643,-1.019545 0.254914,-1.019544 0.254914,-0.955823 0.254915,-0.955823 0.318643,-0.955823 0.254914,-0.892102 0.254915,-0.82838 0.254914,-0.892101 0.254914,-0.82838 0.318643,-0.764659 0.254915,-0.764658 0.254914,-0.764659 0.254914,-0.764658 0.254915,-0.700937 0.318643,-0.700937 0.25491,-0.637215 0.25492,-0.637216 0.25491,-0.637215 0.25492,-0.637216 0.25491,-0.573493 0.25492,-0.637216 0.25491,-0.509772 0.25491,-0.573494 0.31865,-0.573494 0.25491,-0.509772 0.25492,-0.509772 0.25491,-0.509773 0.25492,-0.44605 0.25491,-0.509773 0.25491,-0.44605 0.25492,-0.446051 0.25491,-0.446051 0.25492,-0.446051 0.25491,-0.382329 0.25492,-0.446051 0.25491,-0.382329 0.25491,-0.382329 0.25492,-0.382329 0.25491,-0.38233 0.25492,-0.318607 0.25491,-0.38233 0.25492,-0.318607 0.25491,-0.382329 0.25492,-0.318608 0.25491,-0.318608 0.25491,-0.318608 0.19119,-0.318607 0.25491,-0.254886 0.25492,-0.318608 0.25491,-0.254886 0.25492,-0.318608 0.25491,-0.254886 0.25492,-0.254886 0.25491,-0.254886 0.19119,-0.254886 0.25491,-0.254887 0.25492,-0.254886 0.25491,-0.191164 0.25491,-0.254887 0.25492,-0.254886 0.19118,-0.191164 0.25492,-0.254886 0.25491,-0.191165 0.25492,-0.191165 0.25491,-0.191164 0.19119,-0.254886 0.25491,-0.191165 0.25492,-0.191165 0.25491,-0.191164 0.25492,-0.191165 0.19118,-0.127443 0.25492,-0.191165 0.25491,-0.191164 0.19119,-0.191165 0.25491,-0.127443 0.25491,-0.191164 0.25492,-0.127444 0.19118,-0.191164 0.25492,-0.127443 0.25491,-0.127443 0.19119,-0.191165 0.25491,-0.127443 0.25492,-0.127443 0.19118,-0.127443 0.25492,-0.127443 0.25491,-0.127443 0.19119,-0.127443 0.25491,-0.127443 0.25492,-0.127444 0.19118,-0.127443 0.25492,-0.127443 0.19118,-0.127443 0.25492,-0.127443 0.25491,-0.06372 0.19119,-0.127443 0.25491,-0.127444 0.19119,-0.127443 0.25491,-0.06372 0.25492,-0.127443 0.19118,-0.06372 0.25492,-0.127443 0.19118,-0.06372 0.25492,-0.127443 0.19118,-0.06372 0.25492,-0.127443 0.19118,-0.06372 0.25492,-0.127443 0.19118,-0.06372 0.25492,-0.06372 0.19118,-0.127443 0.25492,-0.06372 0.19118,-0.06372 0.25492,-0.06372 0.19118,-0.127443 0.25492,-0.06372 0.19118,-0.06372 0.25492,-0.06372 0.19118,-0.06372 0.25492,-0.06372 0.19118,-0.06372 0.25492,-0.06372 0.19118,-0.06372 0.25492,-0.127443 0.19118,-0.06372 0.19119,-0.06372 0.25491,-0.06372 h 0.19119 l 0.25491,-0.06372 0.19119,-0.06372 0.25491,-0.06372 0.19119,-0.06372 0.19119,-0.06372 0.25491,-0.06372 0.19119,-0.06372 0.25491,-0.06372 h 0.19119 l 0.19118,-0.06372 0.25492,-0.06372 0.19118,-0.06372 0.19119,-0.06372 h 0.25491 l 0.19119,-0.06372 0.25491,-0.06372 0.19119,-0.06372 h 0.19118 l 0.25492,-0.06372 0.19118,-0.06372 h 0.19119 l 0.19119,-0.06372 0.25491,-0.06372 0.19119,-0.06372 h 0.19118 l 0.25492,-0.06372 h 0.19118 l 0.19119,-0.06372 0.25491,-0.06372 h 0.19119 l 0.19118,-0.06372 h 0.19119 l 0.25491,-0.06372 0.19119,-0.06372 h 0.19119 l 0.19118,-0.06372 h 0.25492 l 0.19118,-0.06372 h 0.19119 l 0.19118,-0.06372 h 0.19119 l 0.25491,-0.06372 h 0.19119 l 0.19119,-0.06372 h 0.19118 l 0.19119,-0.06372 h 0.25491 l 0.19119,-0.06372 h 0.19118 l 0.19119,-0.06372 h 0.19118 0.19119 l 0.19119,-0.06372 h 0.25491 l 0.19119,-0.06372 h 0.19118 0.19119 l 0.19118,-0.06372 h 0.19119 l 0.19118,-0.06372 h 0.19119 0.19119 l 0.25491,-0.06372 h 0.19119 0.19118 l 0.19119,-0.06372 h 0.19118 0.19119 l 0.19119,-0.06372 h 0.19118 0.19119 l 0.19118,-0.06372 h 0.19119 0.19118 l 0.19119,-0.06372 h 0.19119 0.19118 l 0.19119,-0.06372 h 0.19118 0.19119 0.25491 l 0.19119,-0.06372 h 0.19119 0.19118 0.19119 l 0.19118,-0.06372 h 0.19119 0.19118 0.19119 l 0.19119,-0.06372 h 0.19118 0.12746 0.19118 0.19119 l 0.19119,-0.06372 h 0.19118 0.19119 0.19118 l 0.19119,-0.06372 h 0.19119 0.19118 0.19119 0.19118 l 0.19119,-0.06372 h 0.19118 0.19119 0.19119 0.19118 0.19119 l 0.19118,-0.06372 h 0.19119 0.12746 0.19118 0.19119 l 0.19118,-0.06372 h 0.19119 0.19118 0.19119 0.19119 0.19118 l 0.12746,-0.06372 h 0.19119 0.19118 0.19119 0.19118 0.19119 l 0.19118,-0.06372 h 0.19119 0.12746 0.19118 0.19119 0.19118 l 0.19119,-0.06372 h 0.19119 0.12745 0.19119 0.19118 0.19119 0.19119 l 0.19118,-0.06372 h 0.12746 0.19119 0.19118 0.19119 0.12745 0.19119 0.19119 l 0.19118,-0.06372 h 0.19119 0.12745 0.19119 0.19119 0.19118 0.12746 0.19118 0.19119 l 0.19119,-0.06372 h 0.12745 0.19119 0.19118 0.19119 0.12746 0.19118 0.19119 0.12746 0.19118 0.19119 l 0.19118,-0.06372 h 0.12746 0.19119 0.19118 0.12746 0.19119 0.19118 0.12746 0.19118 0.19119 0.19119 0.12745 l 0.19119,-0.06372 h 0.19118 0.12746 0.19119 0.19118 0.12746 0.19119 0.19118 0.12746 0.19119 0.12745 0.19119 0.19118 0.12746 l 0.19119,-0.06372 h 0.19118 0.12746 0.19119 0.19118 0.12746 0.19118 0.12746 0.19119 0.19118 0.12746 0.19119 0.12745 0.19119 0.12746 l 0.19118,-0.06372 h 0.19119 0.12746 0.19118 0.12746 0.19118 0.12746 0.19119 0.12745 0.19119 0.12746 0.19118 0.19119 0.12746 0.19118 0.12746 l 0.19118,-0.06372 h 0.12746 0.19119 0.12746 0.19118 0.12746 0.19118 0.12746 0.19119 0.12745 0.19119 0.12746 0.19118 0.12746 0.19119 0.12745 0.19119 0.12746 0.19118 0.12746 0.12746 0.19118 l 0.12746,-0.06372 h 0.19118 0.12746 0.19119 0.12746 0.19118 0.12746 0.19118 0.12746 0.12746 0.19118 0.12746 0.19119 0.12745 0.19119 0.12746 0.19118 0.12746 0.12746 0.19118 0.12746 0.19119 0.12745 0.12746 0.19119 0.12745 0.19119 0.12746 0.12745 0.19119 l 0.12746,-0.06372 h 0.19118 0.12746 0.12746 0.19118 0.12746 0.19119 0.12745 0.12746 0.19119 0.12745 0.12746 0.19119 0.12745 0.19119 0.12746 0.12745 0.19119 0.12746 0.12745 0.19119 0.12746 0.12745 0.19119 0.12746 0.12745 0.12746 0.19119 0.12745 0.12746 0.19119 0.12745 0.12746 0.19119 0.12745 0.12746 0.12746 0.19118 0.12746 0.12746 0.19118 0.12746 0.12746 0.12746 0.19118 0.12746 0.12746 0.12745 0.19119 0.12746 0.12745 0.12746 0.19119 0.12745 0.12746 0.12746 0.19118 0.12746 0.12746 0.12746 l 0.19118,-0.06372 h 0.12746 0.12746 0.12745 0.19119 0.12746 0.12745 0.12746 0.12746 0.19118 0.12746 0.12746 0.12745 0.12746 0.19119 0.12746 0.12745 0.12746 0.12746 0.19118 0.12746 0.12746 0.12745 0.12746 0.19119 0.12745 0.12746 0.12746 0.12746 0.12745 0.19119 0.12746 0.12745 0.12746 0.12746 0.12745 0.19119 0.12746 0.12745 0.12746 0.12746 0.12746 0.12745 0.19119 0.12746 0.12745 0.12746 0.12746 0.12746 0.12745 0.12746 0.19119 0.12745 0.12746 0.12746 0.12745 0.12746 0.12746 0.12746 0.12745 l 0.19119,-0.06372 h 0.12746 0.12745 0.12746 0.12746 0.12745 0.12746 0.12746 0.12746 0.12745 0.12746 0.19119 0.12745 0.12746 0.12746 0.12746 0.12745 0.12746 0.12746 0.12745 0.12746 0.12746 0.12746 0.19118 0.12746 0.12746 0.12745 0.12746 0.12746 0.12745 0.12746 0.12746 0.12746 0.12745 0.12746 0.12746 0.12745 0.12746 0.12746 0.12746 0.19118 0.12746 0.12746 0.12745 0.12746 0.12746 0.12746 0.12745 0.12746 0.12746 0.12745 0.12746 0.12746 0.12746 0.12745 0.12746 0.12746 0.12745 0.12746 0.12746 0.12746 0.12745 0.12746 0.12746 0.12745 0.12746 0.12746 0.12746 0.12745 0.12746 0.12746 0.12746 0.12745 0.12746 0.12746 0.12745 0.12746 0.12746 0.12746 0.0637 0.12746 0.12746 0.12746 0.12745 0.12746 0.12746 0.12745 0.12746 0.12746 0.12746 0.12745 0.12746 0.12746 0.12745 0.12746 0.0637 0.12746 0.12746 0.12745 0.12746 0.12746 0.12745 0.12746 0.12746 0.12746 0.12745 0.0637 0.12746 0.12746 0.12745 0.12746 0.12746 0.12745 0.12746"
       id="path142"
       transform="matrix(0.26458333,0,0,0.26458333,-4.2400722,-6.0665613)" />
    <path
       style="fill:none;stroke:#006bac;stroke-width:1.08333px;stroke-linecap:round;stroke-linejoin:round;stroke-miterlimit:10;stroke-dasharray:none;stroke-opacity:1"
       clip-path="url(#clipEmfPath1)"
       d="m 208.26505,49.384192 h 0.12746 0.0637 0.12745 0.12746 0.12746 0.12746 0.12745 0.12746 0.12746 0.0637 0.12745 0.12746 0.12746 0.12746 0.12745 0.12746 0.12746 0.0637 0.12745 0.12746 0.12746 0.12745 0.12746 0.12746 0.0637 0.12745 0.12746 0.12746 0.12746 0.12745 0.12746 0.12746 0.0637 0.12745 0.12746 0.12746 0.12745 0.12746 0.12746 0.0637 0.12745 0.12746 0.12746 0.12746 0.12745 0.0637 0.12746 0.12746 0.12745 0.12746 0.12746 0.0637 0.12745 0.12746 0.12746 0.12746 0.12745 0.0637 0.12746 0.12746 0.12745 0.12746 0.12746 0.0637 0.12745 0.12746 0.12746 0.12745 0.0637 0.12746 0.12746 0.12745 0.0637 0.12746 0.12746 0.12746 0.12745 0.0637 0.12746 0.12746 0.12745 0.0637 0.12746 0.12746 0.12745 0.0637 0.12746 0.12746 0.12745 0.0637 0.12746 0.12746 0.12745 0.0637 0.12746 0.12746 0.12745 0.0637 0.12746 0.12746 0.12745 0.0637 0.12746 0.12746 0.12745 0.0637 0.12746 0.12746 0.0637 0.12746 0.12746 0.12746 0.0637 0.12745 0.12746 0.0637 0.12746 0.12745 0.12746 0.0637 0.12746 0.12745 0.0637 0.12746 0.12746 0.0637 l 0.12746,-0.06372 h 0.12746 0.12746 0.0637 0.12746 0.12746 0.0637 0.12745 0.12746 0.0637 0.12746 0.12745 0.12746 0.0637 0.12746 0.12745 0.0637 0.12746 0.12746 0.0637 0.12745 0.12746 0.12746 0.0637 0.12745 0.12746 0.0637 0.12746 0.12745 0.0637 0.12746 0.12746 0.12745 0.0637 0.12746 0.12746 0.0637 0.12745 0.12746 0.0637 0.12746 0.12745 0.0637 0.12746 0.12746 0.0637 0.12746 0.12746 0.0637 0.12745 0.12746 0.0637 0.12746 0.12746 0.0637 0.12746 0.12746 0.0637 0.12745 0.0637 0.12746 0.12746 0.0637 0.12745 0.12746 0.0637 0.12746 0.0637 0.12746 0.12746 0.0637 0.12745 0.12746 0.0637 0.12746 0.0637 0.12745 0.12746 0.0637 0.12746 0.12745 0.0637 0.12746 0.0637 0.12745 0.12746 0.0637 0.12746 0.0637 0.12745 0.12746 0.0637 0.12746 0.0637 0.12745 0.0637 0.12746 0.12746 0.0637 0.12746 0.0637 0.12746 0.12745 0.0637 0.12746 0.0637 0.12746 0.0637 0.12746 0.0637 0.12746 0.12745 0.0637 0.12746 0.0637 0.12746 0.0637 0.12746 0.0637 0.12746 0.0637 0.12745 0.12746 0.0637 0.12746 0.0637 0.12745 0.0637 0.12746 0.0637 0.12745 0.0637 0.12746 0.0637 0.12746 0.12745 0.0637 0.12746 0.0637 0.12745 0.0637 0.12746 0.0637 0.12746 0.0637 0.12746 0.0637 0.12746 0.0637 0.12745 0.12746 0.0637 0.12746 0.0637 0.12746 0.0637 0.12746 0.0637 0.12745 0.0637 0.12746 0.0637 0.12745 0.0637 0.12746 0.0637 0.12746 0.0637 0.12745 0.0637 0.12746 0.0637 0.12745 0.0637 0.12746 0.0637 0.12746 0.0637 0.12746 0.0637 0.12746 0.0637 0.12745 0.0637 0.12746 0.0637 0.12745 0.0637 0.12746 0.0637 0.12746 0.0637 0.12746 0.0637 0.12746 0.0637 0.12745 0.0637 0.12746 0.0637 0.12745 0.0637 0.12746 0.0637 0.12746 0.0637 0.12745 0.0637 0.12746 0.0637 0.0637 0.12745 0.0637 0.12746 0.0637 0.12745 0.0637 0.12746 0.0637 0.12746 0.0637 0.12746 0.0637 0.12746 0.0637 0.0637 0.12746 0.0637 0.12746 0.0637 0.12745 0.0637 0.12746 0.0637 0.12745 0.0637 0.12746 0.0637 0.0637 0.12745 0.0637 0.12746 0.0637 0.12746 0.0637 0.12745 0.0637 0.12746 0.0637 0.0637 0.12745 0.0637 0.12746 0.0637 0.12745 0.0637 0.12746 0.0637 0.0637 0.12745 0.0637 0.12746 0.0637 0.0637 0.12745 0.0637 0.12746 0.0637 0.12746 0.0637 0.0637 0.12746 0.0637 0.12746 0.0637 0.0637 0.12746 0.0637 0.12746 0.0637 0.0637 0.12746 0.0637 0.12746 0.0637 0.0637 0.12746 0.0637 0.12746 0.0637 0.0637 0.12746 0.0637 0.12746 0.0637 0.0637 0.12746 0.0637 0.12746 0.0637 0.0637 0.12746 0.0637 0.12746 0.0637 0.0637 0.12746 0.0637 0.0637 0.12746 0.0637 0.12746 0.0637 0.0637 0.12746 0.0637 0.0637 0.12746 0.0637 0.0637 0.12745 0.0637 0.12746 0.0637 0.0637 0.12746 0.0637 0.0637 0.12746 0.0637 0.0637 0.12745 0.0637 0.0637 0.12746 0.0637 0.0637 0.12745 0.0637 0.0637 0.12746 0.0637 0.0637 0.12746 0.0637 0.0637 0.12746 0.0637 0.0637 0.12746 0.0637 0.0637 0.12745 0.0637 0.0637 0.12746 0.0637 0.0637 0.12745 0.0637 0.0637 0.12746 0.0637 0.0637 0.12746 0.0637 0.0637 0.12746 0.0637 0.0637 0.12746 0.0637 0.0637 0.12746 0.0637 0.0637 0.12746 0.0637 0.0637 0.12745 0.0637 0.0637 0.12746 0.0637 0.0637 0.12745 0.0637 0.0637 0.12746 0.0637 0.0637 0.12746 0.0637 0.0637 0.12746 0.0637 0.0637 0.12746 0.0637 0.0637 0.0637 0.12745 0.0637 0.0637 0.12746 0.0637 0.0637 0.12746 0.0637 0.0637 0.0637 0.12745 0.0637 0.0637 0.12746 0.0637 0.0637 0.0637 0.12745 0.0637 0.0637 0.12746 0.0637 0.0637 0.0637 0.12746 0.0637 0.0637 0.0637 0.12745 0.0637 0.0637 0.0637 0.12746 0.0637 0.0637 0.12746 0.0637 0.0637 0.0637 0.12745 0.0637 0.0637 0.0637 0.12746 0.0637 0.0637 0.0637 0.12746 0.0637 0.0637 0.12745 0.0637 0.0637 0.0637 0.12746 0.0637 0.0637 0.0637 0.12746 0.0637 0.0637 0.0637 0.12745 0.0637 0.0637 0.0637 0.12746 0.0637 0.0637 0.0637 0.12746 0.0637 0.0637 0.0637 0.12746 0.0637 0.0637 0.0637 0.0637 0.12745 0.0637 0.0637 0.0637 0.12746 0.0637 0.0637 0.0637 0.12746 0.0637 0.0637 0.0637 0.12746 0.0637 0.0637 0.0637 0.0637 0.12745 0.0637 0.0637 0.0637 0.12746 0.0637 0.0637 0.0637 0.12746 0.0637 0.0637 0.0637 0.0637 0.12746 0.0637 0.0637 0.0637 0.12745 0.0637 0.0637 0.0637 0.12746 0.0637 0.0637 0.0637 0.0637 0.12746 0.0637 0.0637 0.0637 0.0637 0.12746 0.0637 0.0637 0.0637 0.12745 0.0637 0.0637 0.0637 0.0637 0.12745 0.0637 0.0637 0.0637 0.0637 0.12746 0.0637 0.0637 0.0637 0.0637 0.12746 0.0637 0.0637 0.0637 0.0637 0.12746 0.0637 0.0637 0.0637 0.0637 0.12746 0.0637 0.0637 0.0637 0.0637 0.12745 0.0637 0.0637 0.0637 0.0637 0.12745 0.0637 0.0637 0.0637 0.0637 0.12746"
       id="path144"
       transform="matrix(0.26458333,0,0,0.26458333,-4.2400722,-6.0665613)" />
    <path
       style="fill:none;stroke:#006bac;stroke-width:1.08333px;stroke-linecap:round;stroke-linejoin:round;stroke-miterlimit:10;stroke-dasharray:none;stroke-opacity:1"
       clip-path="url(#clipEmfPath1)"
       d="m 274.35161,49.32047 h 0.0637 0.0637 0.0637 0.0637 0.12746 0.0637 0.0637 0.0637 0.0637 0.0637 0.12746 0.0637 0.0637 0.0637 0.0637 0.12746 0.0637 0.0637 0.0637 0.0637 0.0637 0.12746 0.0637 0.0637 0.0637 0.0637 0.0637 0.12746 0.0637 0.0637 0.0637 0.0637 0.0637 0.12746 0.0637 0.0637 0.0637 0.0637 0.0637 0.12746 0.0637 0.0637 0.0637 0.0637 0.0637 0.0637 0.12746 0.0637 0.0637 0.0637 0.0637 0.0637 0.0637 0.12746 0.0637 0.0637 0.0637 0.0637 0.0637 0.0637 0.12746 0.0637 0.0637 0.0637 0.0637 0.0637 0.0637 0.0637 0.12745 0.0637 0.0637 0.0637 0.0637 0.0637 0.0637 0.12746 0.0637 0.0637 0.0637 0.0637 0.0637 0.0637 0.0637 0.12746 0.0637 0.0637 0.0637 0.0637 0.0637 0.0637 0.0637 0.12746 0.0637 0.0637 0.0637 0.0637 0.0637 0.0637 0.0637 0.12745 0.0637 0.0637 0.0637 0.0637 0.0637 0.0637 0.0637 0.12746 0.0637 0.0637 0.0637 0.0637 0.0637 0.0637 0.0637 0.0637 0.0637 0.12746 0.0637 0.0637 0.0637 0.0637 0.0637 0.0637 0.0637 0.0637 0.0637 0.12746 0.0637 0.0637 0.0637 0.0637 0.0637 0.0637 0.0637 0.0637 0.0637 0.12746 0.0637 0.0637 0.0637 0.0637 0.0637 0.0637 0.0637 0.0637 0.0637 0.12746 0.0637 0.0637 0.0637 0.0637 0.0637 0.0637 0.0637 0.0637 0.0637 0.0637 0.12745 0.0637 0.0637 0.0637 0.0637 0.0637 0.0637 0.0637 0.0637 0.0637 0.0637 0.0637 0.12745 0.0637 0.0637 0.0637 0.0637 0.0637 0.0637 0.0637 0.0637 0.0637 0.0637 0.0637 0.0637 0.0637 0.12745 0.0637 0.0637 0.0637 0.0637 0.0637 0.0637 0.0637 0.0637 0.0637 0.0637 0.0637 0.0637 0.0637 0.0637 0.12746 0.0637 0.0637 0.0637 0.0637 0.0637 0.0637 0.0637 0.0637 0.0637 0.0637 0.0637 0.0637 0.0637 0.0637 0.0637 0.12746 0.0637 0.0637 0.0637 0.0637 0.0637 0.0637 0.0637 0.0637 0.0637 0.0637 0.0637 0.0637 0.0637 0.0637 0.0637 0.0637 0.0637 0.0637 0.0637 0.0637 0.0637 0.12745 0.0637 0.0637 0.0637 0.0637 0.0637 0.0637 0.0637 0.0637 0.0637 0.0637 0.0637 0.0637 0.0637 0.0637 0.0637 0.0637 0.0637 0.0637 0.0637 0.0637 0.0637 0.0637 0.0637 0.0637 0.0637 0.0637 0.0637 0.0637 0.12745 0.0637 0.0637 0.0637 0.0637 0.0637 0.0637 0.0637 0.0637 0.0637 0.0637 0.0637 0.0637 0.0637 0.0637 0.0637 0.0637 0.0637 0.0637 0.0637 0.0637 0.0637 0.0637 0.0637 0.0637 0.0637 0.0637 0.0637 0.0637 0.0637 0.0637 0.12746 0.0637 0.0637 0.0637 0.0637 0.0637 0.0637 0.0637 0.0637 0.0637 0.0637 0.0637 0.0637 0.0637 0.0637 0.0637 0.0637 0.0637 0.0637 0.0637 0.0637 0.0637 0.0637 0.0637 0.0637 0.0637 0.0637 0.0637 0.0637 0.0637 0.0637 0.0637 0.0637 0.0637 0.0637 0.0637 0.0637 0.0637 0.0637 0.0637 0.0637 0.0637 0.0637 0.0637 0.0637 0.0637 0.0637 0.0637 0.0637 0.0637 0.0637 0.0637 0.0637 0.0637 0.0637 0.0637 0.0637 0.0637 0.0637 0.0637 0.0637 0.0637 0.0637 0.0637 0.0637 0.0637 0.0637 0.0637 0.0637 0.0637 0.0637 0.0637 0.0637 0.0637 0.0637 0.0637 0.0637 0.0637 0.0637 0.0637 0.0637 0.0637 0.0637 0.0637 0.0637 0.0637 0.0637 0.0637 0.0637 0.0637 0.0637 0.0637 0.0637 0.0637 0.0637 0.0637 0.0637 0.0637 0.0637 0.0637 0.0637 0.0637 0.0637 0.0637 0.0637 0.0637 0.0637 0.0637 0.0637 0.0637 0.0637 0.0637 0.0637 0.0637 0.0637 0.0637 0.0637 0.0637 0.0637 0.0637 0.0637 0.0637 0.0637 0.0637 0.0637 0.0637 0.0637 0.0637 0.0637 0.0637 0.0637 0.0637 0.0637 0.0637 0.0637 0.0637 0.0637 0.0637 0.0637 0.0637 0.0637 0.0637 0.0637 0.0637 0.0637 0.0637 0.0637 0.0637 0.0637 0.0637 0.0637 0.0637 0.0637 0.0637 0.0637 0.0637 0.0637 0.0637 0.0637 0.0637 0.0637 0.0637 0.0637 0.0637 0.0637 0.0637 0.0637 0.0637 0.0637 0.0637 0.0637 0.0637 0.0637 0.0637 0.0637 0.0637 0.0637 0.0637 0.0637 0.0637 0.0637 0.0637 0.0637 0.0637 0.0637 0.0637 0.0637 0.0637 0.0637 0.0637 0.0637 0.0637 0.0637 0.0637 0.0637 0.0637 0.0637 0.0637 0.0637 0.0637 0.0637 0.0637 0.0637 0.0637 0.0637 0.0637 0.0637 0.0637 0.0637 0.0637 0.0637 0.0637 0.0637 0.0637 0.0637 0.0637 0.0637 0.0637 0.0637 0.0637 0.0637 0.0637 0.0637 0.0637 0.0637 0.0637 0.0637 0.0637 0.0637 0.0637 0.0637 0.0637 0.0637 0.0637 0.0637 0.0637 0.0637 0.0637 0.0637 0.0637 0.0637 0.0637 0.0637 0.0637 0.0637 0.0637 0.0637 0.0637 0.0637 0.0637 0.0637 0.0637 0.0637 0.0637 0.0637 0.0637 0.0637 0.0637 0.0637 0.0637 0.0637 0.0637 0.0637 0.0637 0.0637 0.0637 0.0637 0.0637 0.0637 0.0637 0.0637 0.0637 0.0637 0.0637 0.0637 0.0637 0.0637 0.0637 0.0637 0.0637 0.0637 0.0637 0.0637 0.0637 0.0637 0.0637 0.0637 0.0637 0.0637 0.0637 0.0637 0.0637 0.0637 0.0637 0.0637 0.0637 0.0637 0.0637 0.0637 0.0637 0.0637 0.0637 0.0637 0.0637 0.0637 0.0637 0.0637 0.0637 0.0637 0.0637 0.0637 0.0637 0.0637 0.0637 0.0637 0.0637 0.0637 0.0637 0.0637 0.0637 0.0637 0.0637 0.0637 0.0637 0.0637 0.0637 0.0637 0.0637 0.0637 0.0637 0.0637 0.0637 0.0637 0.0637 0.0637 0.0637 0.0637 0.0637 0.0637 0.0637 0.0637 0.0637 0.0637 0.0637 0.0637 0.0637 0.0637 0.0637 0.0637 0.0637 0.0637 0.0637 0.0637 0.0637 0.0637 0.0637 0.0637 0.0637 0.0637 0.0637 0.0637 0.0637 0.0637 0.0637 0.0637 0.0637 0.0637 0.0637 0.0637 0.0637 0.0637 0.0637 0.0637 0.0637 0.0637 0.0637 0.0637 0.0637 0.0637 0.0637 0.0637 0.0637 0.0637 0.0637 0.0637 0.0637 0.0637 0.0637 0.0637 0.0637 0.0637 0.0637 0.0637 0.0637 0.0637 0.0637 0.0637 0.0637 0.0637 0.0637 0.0637 0.0637"
       id="path146"
       transform="matrix(0.26458333,0,0,0.26458333,-4.2400722,-6.0665613)" />
    <path
       style="fill:none;stroke:#006bac;stroke-width:1.08333px;stroke-linecap:round;stroke-linejoin:round;stroke-miterlimit:10;stroke-dasharray:none;stroke-opacity:1"
       clip-path="url(#clipEmfPath1)"
       d="m 320.68229,49.32047 h 0.0637 0.0637 0.0637 0.0637 0.0637 0.0637 0.0637 0.0637 0.0637 0.0637 0.0637 0.0637 0.0637 0.0637 0.0637 0.0637 0.0637 0.0637 0.0637 0.0637 0.0637 0.0637 0.0637 0.0637 0.0637 0.0637 0.0637 0.0637 0.0637 0.0637 0.0637 0.0637 0.0637 0.0637 0.0637 0.0637 0.0637 0.0637 0.0637 0.0637 0.0637 0.0637 0.0637 0.0637 0.0637 0.0637 0.0637 0.0637 0.0637 0.0637 0.0637 0.0637 0.0637 0.0637 0.0637 0.0637 0.0637 0.0637 0.0637 0.0637 0.0637 0.0637 0.0637 0.0637 0.0637 0.0637 0.0637 0.0637 0.0637 0.0637 0.0637 0.0637 0.0637 0.0637 0.0637 0.0637 0.0637 0.0637 0.0637 0.0637 0.0637 0.0637 0.0637 0.0637 0.0637 0.0637 0.0637 0.0637 0.0637 0.0637 0.0637 0.0637 0.0637 0.0637 0.0637 0.0637 0.0637 0.0637 0.0637 0.0637 0.0637 0.0637 0.0637 0.0637 0.0637 0.0637 0.0637 0.0637 0.0637 0.0637 0.0637 0.0637 0.0637 0.0637 0.0637 0.0637 0.0637 0.0637 0.0637 0.0637 0.0637 0.0637 0.0637 0.0637 0.0637 0.0637 0.0637 0.0637 0.0637 0.0637 0.0637 0.0637 0.0637 0.0637 0.0637 0.0637 0.0637 0.0637 0.0637 0.0637 0.0637 0.0637 0.0637 0.0637 0.0637 0.0637 0.0637 0.0637 0.0637 0.0637 0.0637 0.0637 0.0637 0.0637 0.0637 0.0637 0.0637 0.0637 0.0637 0.0637 0.0637 0.0637 0.0637 0.0637 0.0637 0.0637 0.0637 0.0637 0.0637 0.0637 0.0637 0.0637 0.0637 0.0637 0.0637 0.0637 0.0637 0.0637 0.0637 0.0637 0.0637 0.0637 0.0637 0.0637 0.0637 0.0637 0.0637 0.0637 0.0637 0.0637 0.0637 0.0637 0.0637 0.0637 0.0637 0.0637 0.0637 0.0637 0.0637 0.0637 0.0637 0.0637 0.0637 0.0637 0.0637 0.0637 0.0637 0.0637 0.0637 0.0637 0.0637 0.0637 0.0637 0.0637 0.0637 0.0637 0.0637 0.0637 0.0637 0.0637 0.0637 0.0637 0.0637 0.0637 0.0637 0.0637 0.0637 0.0637 0.0637 0.0637 0.0637 0.0637 0.0637 0.0637 0.0637 0.0637 0.0637 0.0637 0.0637 0.0637 0.0637 0.0637 0.0637 0.0637 0.0637 0.0637 0.0637 0.0637 0.0637 0.0637 0.0637 0.0637 0.0637 0.0637 0.0637 0.0637 0.0637 0.0637 0.0637 0.0637 0.0637 0.0637 0.0637 0.0637 0.0637 0.0637 0.0637 0.0637 0.0637 0.0637 0.0637 0.0637 0.0637 0.0637 0.0637 0.0637 0.0637 0.0637 0.0637 0.0637 0.0637 0.0637 0.0637 0.0637 0.0637 0.0637 0.0637 0.0637 0.0637 0.0637 0.0637 0.0637 0.0637 0.0637 0.0637 0.0637 0.0637 0.0637 0.0637 0.0637 0.0637 0.0637 0.0637 0.0637 0.0637 0.0637 0.0637 0.0637 0.0637 0.0637 0.0637 0.0637 0.0637 0.0637 0.0637 0.0637 0.0637 0.0637 0.0637 0.0637 0.0637 0.0637 0.0637 0.0637 0.0637 0.0637 0.0637 0.0637 0.0637 0.0637 0.0637 0.0637 0.0637 0.0637 0.0637 0.0637 0.0637 0.0637 0.0637 0.0637 0.0637 0.0637 0.0637 0.0637 0.0637 0.0637 0.0637 0.0637 0.0637 0.0637 0.0637 0.0637 0.0637 0.0637 0.0637 0.0637 0.0637 0.0637 0.0637 0.0637 0.0637 0.0637 0.0637 0.0637 0.0637 0.0637 0.0637 0.0637 0.0637 0.0637 0.0637 0.0637 0.0637 0.0637 0.0637 0.0637 0.0637 0.0637 0.0637 0.0637 0.0637 0.0637 0.0637 0.0637 0.0637 0.0637 0.0637 0.0637 0.0637 0.0637 0.0637 0.0637 0.0637 0.0637 0.0637 0.0637 0.0637 0.0637 0.0637 0.0637 0.0637 0.0637 0.0637 0.0637 0.0637 0.0637 0.0637 0.0637 0.0637 0.0637 0.0637 0.0637 0.0637 0.0637 0.0637 0.0637 0.0637 0.0637 0.0637 0.0637 0.0637 0.0637 0.0637 0.0637 0.0637 0.0637 0.0637 0.0637 0.0637 0.0637 0.0637 0.0637 0.0637 0.0637 0.0637 0.0637 0.0637 0.0637 0.0637 0.0637 0.0637 0.0637 0.0637 0.0637 0.0637 0.0637 0.0637 0.0637 0.0637 0.0637 0.0637 0.0637 0.0637 0.0637 0.0637 0.0637 0.0637 0.0637 0.0637 0.0637 0.0637 0.0637 0.0637 0.0637 0.0637 0.0637 0.0637 0.0637 0.0637 0.0637 0.0637 0.0637 0.0637 0.0637 0.0637 0.0637 0.0637 0.0637 0.0637 0.0637 0.0637 0.0637 0.0637 0.0637 0.0637 0.0637 0.0637 v 0 h 0.0637 0.0637 0.0637 0.0637 v 0 h 0.0637 0.0637 v 0 h 0.0637 0.19119"
       id="path148"
       transform="matrix(0.26458333,0,0,0.26458333,-4.2400722,-6.0665613)" />
    <g
       clip-path="url(#clipEmfPath1)"
       id="g150"
       transform="matrix(0.26458333,0,0,0.26458333,-4.2400722,-6.0665613)" />
    <g
       clip-path="url(#clipEmfPath1)"
       id="g152"
       transform="matrix(0.26458333,0,0,0.26458333,-4.2400722,-6.0665613)" />
    <g
       clip-path="url(#clipEmfPath1)"
       id="g154"
       transform="matrix(0.26458333,0,0,0.26458333,-4.2400722,-6.0665613)" />
    <path
       style="fill:none;stroke:none"
       clip-path="url(#clipEmfPath1)"
       d="m 75.518386,275.65937 h 4.907102 v 4.90656 h -4.907102 z"
       id="path156"
       transform="matrix(0.26458333,0,0,0.26458333,-4.2400722,-6.0665613)" />
    <path
       style="fill:none;stroke:none"
       clip-path="url(#clipEmfPath1)"
       d="m 84.504118,134.89849 h 4.907102 v 4.90656 h -4.907102 z"
       id="path158"
       transform="matrix(0.26458333,0,0,0.26458333,-4.2400722,-6.0665613)" />
    <path
       style="fill:none;stroke:none"
       clip-path="url(#clipEmfPath1)"
       d="m 92.916293,87.872 h 4.907102 v 4.906559 h -4.907102 z"
       id="path160"
       transform="matrix(0.26458333,0,0,0.26458333,-4.2400722,-6.0665613)" />
    <path
       style="fill:none;stroke:none"
       clip-path="url(#clipEmfPath1)"
       d="m 100.88237,68.37321 h 4.9071 v 4.906558 h -4.9071 z"
       id="path162"
       transform="matrix(0.26458333,0,0,0.26458333,-4.2400722,-6.0665613)" />
    <path
       style="fill:none;stroke:none"
       clip-path="url(#clipEmfPath1)"
       d="m 108.40234,59.133587 h 4.9071 v 4.906558 h -4.9071 z"
       id="path164"
       transform="matrix(0.26458333,0,0,0.26458333,-4.2400722,-6.0665613)" />
    <path
       style="fill:none;stroke:none"
       clip-path="url(#clipEmfPath1)"
       d="m 115.53994,54.29075 h 4.90711 v 4.906558 h -4.90711 z"
       id="path166"
       transform="matrix(0.26458333,0,0,0.26458333,-4.2400722,-6.0665613)" />
    <path
       style="fill:none;stroke:none"
       clip-path="url(#clipEmfPath1)"
       d="m 122.29518,51.614445 h 4.9071 v 4.906559 h -4.9071 z"
       id="path168"
       transform="matrix(0.26458333,0,0,0.26458333,-4.2400722,-6.0665613)" />
    <path
       style="fill:none;stroke:none"
       clip-path="url(#clipEmfPath1)"
       d="m 128.79549,50.021407 h 4.9071 v 4.906558 h -4.9071 z"
       id="path170"
       transform="matrix(0.26458333,0,0,0.26458333,-4.2400722,-6.0665613)" />
    <path
       style="fill:none;stroke:none"
       clip-path="url(#clipEmfPath1)"
       d="m 134.97717,49.001862 h 4.9071 v 4.906559 h -4.9071 z"
       id="path172"
       transform="matrix(0.26458333,0,0,0.26458333,-4.2400722,-6.0665613)" />
    <path
       style="fill:none;stroke:none"
       clip-path="url(#clipEmfPath1)"
       d="m 140.8402,48.364647 h 4.9071 v 4.906558 h -4.9071 z"
       id="path174"
       transform="matrix(0.26458333,0,0,0.26458333,-4.2400722,-6.0665613)" />
    <path
       style="fill:none;stroke:none"
       clip-path="url(#clipEmfPath1)"
       d="m 146.51204,47.982318 h 4.9071 v 4.906558 h -4.9071 z"
       id="path176"
       transform="matrix(0.26458333,0,0,0.26458333,-4.2400722,-6.0665613)" />
    <path
       style="fill:none;stroke:none"
       clip-path="url(#clipEmfPath1)"
       d="m 151.9927,47.66371 h 4.9071 v 4.906558 h -4.9071 z"
       id="path178"
       transform="matrix(0.26458333,0,0,0.26458333,-4.2400722,-6.0665613)" />
    <path
       style="fill:none;stroke:none"
       clip-path="url(#clipEmfPath1)"
       d="m 157.21845,47.472545 h 4.9071 v 4.906559 h -4.9071 z"
       id="path180"
       transform="matrix(0.26458333,0,0,0.26458333,-4.2400722,-6.0665613)" />
    <path
       style="fill:none;stroke:none"
       clip-path="url(#clipEmfPath1)"
       d="m 162.31673,47.345102 h 4.90711 v 4.906559 h -4.90711 z"
       id="path182"
       transform="matrix(0.26458333,0,0,0.26458333,-4.2400722,-6.0665613)" />
    <path
       style="fill:none;stroke:none"
       clip-path="url(#clipEmfPath1)"
       d="m 167.16011,47.217659 h 4.9071 v 4.906559 h -4.9071 z"
       id="path184"
       transform="matrix(0.26458333,0,0,0.26458333,-4.2400722,-6.0665613)" />
    <path
       style="fill:none;stroke:none"
       clip-path="url(#clipEmfPath1)"
       d="m 171.87602,47.153938 h 4.90711 v 4.906558 h -4.90711 z"
       id="path186"
       transform="matrix(0.26458333,0,0,0.26458333,-4.2400722,-6.0665613)" />
    <path
       style="fill:none;stroke:none"
       clip-path="url(#clipEmfPath1)"
       d="m 176.46448,47.090216 h 4.9071 v 4.906559 h -4.9071 z"
       id="path188"
       transform="matrix(0.26458333,0,0,0.26458333,-4.2400722,-6.0665613)" />
    <path
       style="fill:none;stroke:none"
       clip-path="url(#clipEmfPath1)"
       d="m 180.86176,47.090216 h 4.9071 v 4.906559 h -4.9071 z"
       id="path190"
       transform="matrix(0.26458333,0,0,0.26458333,-4.2400722,-6.0665613)" />
    <path
       style="fill:none;stroke:none"
       clip-path="url(#clipEmfPath1)"
       d="m 185.13157,47.026495 h 4.9071 v 4.906558 h -4.9071 z"
       id="path192"
       transform="matrix(0.26458333,0,0,0.26458333,-4.2400722,-6.0665613)" />
    <path
       style="fill:none;stroke:none"
       clip-path="url(#clipEmfPath1)"
       d="m 189.27393,47.026495 h 4.9071 v 4.906558 h -4.9071 z"
       id="path194"
       transform="matrix(0.26458333,0,0,0.26458333,-4.2400722,-6.0665613)" />
    <path
       style="fill:none;stroke:none"
       clip-path="url(#clipEmfPath1)"
       d="m 193.28883,46.962773 h 4.9071 v 4.906558 h -4.9071 z"
       id="path196"
       transform="matrix(0.26458333,0,0,0.26458333,-4.2400722,-6.0665613)" />
    <path
       style="fill:none;stroke:none"
       clip-path="url(#clipEmfPath1)"
       d="m 197.24,46.962773 h 4.90711 v 4.906558 H 197.24 Z"
       id="path198"
       transform="matrix(0.26458333,0,0,0.26458333,-4.2400722,-6.0665613)" />
    <path
       style="fill:none;stroke:none"
       clip-path="url(#clipEmfPath1)"
       d="m 201.06372,46.962773 h 4.9071 v 4.906558 h -4.9071 z"
       id="path200"
       transform="matrix(0.26458333,0,0,0.26458333,-4.2400722,-6.0665613)" />
    <path
       style="fill:none;stroke:none"
       clip-path="url(#clipEmfPath1)"
       d="m 204.75998,46.962773 h 4.9071 v 4.906558 h -4.9071 z"
       id="path202"
       transform="matrix(0.26458333,0,0,0.26458333,-4.2400722,-6.0665613)" />
    <path
       style="fill:none;stroke:none"
       clip-path="url(#clipEmfPath1)"
       d="m 208.32878,46.962773 h 4.9071 v 4.906558 h -4.9071 z"
       id="path204"
       transform="matrix(0.26458333,0,0,0.26458333,-4.2400722,-6.0665613)" />
    <path
       style="fill:none;stroke:none"
       clip-path="url(#clipEmfPath1)"
       d="m 211.89758,46.962773 h 4.9071 v 4.906558 h -4.9071 z"
       id="path206"
       transform="matrix(0.26458333,0,0,0.26458333,-4.2400722,-6.0665613)" />
    <path
       style="fill:none;stroke:none"
       clip-path="url(#clipEmfPath1)"
       d="m 215.33893,46.962773 h 4.9071 v 4.906558 h -4.9071 z"
       id="path208"
       transform="matrix(0.26458333,0,0,0.26458333,-4.2400722,-6.0665613)" />
    <path
       style="fill:none;stroke:none"
       clip-path="url(#clipEmfPath1)"
       d="m 218.65281,46.962773 h 4.9071 v 4.906558 h -4.9071 z"
       id="path210"
       transform="matrix(0.26458333,0,0,0.26458333,-4.2400722,-6.0665613)" />
    <path
       style="fill:none;stroke:none"
       clip-path="url(#clipEmfPath1)"
       d="m 221.90297,46.899052 h 4.9071 v 4.906558 h -4.9071 z"
       id="path212"
       transform="matrix(0.26458333,0,0,0.26458333,-4.2400722,-6.0665613)" />
    <path
       style="fill:none;stroke:none"
       clip-path="url(#clipEmfPath1)"
       d="m 225.15313,46.899052 h 4.9071 v 4.906558 h -4.9071 z"
       id="path214"
       transform="matrix(0.26458333,0,0,0.26458333,-4.2400722,-6.0665613)" />
    <path
       style="fill:none;stroke:none"
       clip-path="url(#clipEmfPath1)"
       d="m 228.27583,46.899052 h 4.9071 v 4.906558 h -4.9071 z"
       id="path216"
       transform="matrix(0.26458333,0,0,0.26458333,-4.2400722,-6.0665613)" />
    <path
       style="fill:none;stroke:none"
       clip-path="url(#clipEmfPath1)"
       d="m 231.3348,46.899052 h 4.90711 v 4.906558 h -4.90711 z"
       id="path218"
       transform="matrix(0.26458333,0,0,0.26458333,-4.2400722,-6.0665613)" />
    <path
       style="fill:none;stroke:none"
       clip-path="url(#clipEmfPath1)"
       d="m 234.26632,46.899052 h 4.9071 v 4.906558 h -4.9071 z"
       id="path220"
       transform="matrix(0.26458333,0,0,0.26458333,-4.2400722,-6.0665613)" />
    <path
       style="fill:none;stroke:none"
       clip-path="url(#clipEmfPath1)"
       d="m 237.19783,46.899052 h 4.90711 v 4.906558 h -4.90711 z"
       id="path222"
       transform="matrix(0.26458333,0,0,0.26458333,-4.2400722,-6.0665613)" />
    <path
       style="fill:none;stroke:none"
       clip-path="url(#clipEmfPath1)"
       d="m 240.06562,46.899052 h 4.9071 v 4.906558 h -4.9071 z"
       id="path224"
       transform="matrix(0.26458333,0,0,0.26458333,-4.2400722,-6.0665613)" />
    <path
       style="fill:none;stroke:none"
       clip-path="url(#clipEmfPath1)"
       d="m 242.86968,46.899052 h 4.9071 v 4.906558 h -4.9071 z"
       id="path226"
       transform="matrix(0.26458333,0,0,0.26458333,-4.2400722,-6.0665613)" />
    <path
       style="fill:none;stroke:none"
       clip-path="url(#clipEmfPath1)"
       d="m 245.67374,46.899052 h 4.9071 v 4.906558 h -4.9071 z"
       id="path228"
       transform="matrix(0.26458333,0,0,0.26458333,-4.2400722,-6.0665613)" />
    <path
       style="fill:none;stroke:none"
       clip-path="url(#clipEmfPath1)"
       d="m 248.35034,46.899052 h 4.9071 v 4.906558 h -4.9071 z"
       id="path230"
       transform="matrix(0.26458333,0,0,0.26458333,-4.2400722,-6.0665613)" />
    <path
       style="fill:none;stroke:none"
       clip-path="url(#clipEmfPath1)"
       d="m 251.02694,46.899052 h 4.9071 v 4.906558 h -4.9071 z"
       id="path232"
       transform="matrix(0.26458333,0,0,0.26458333,-4.2400722,-6.0665613)" />
    <path
       style="fill:none;stroke:none"
       clip-path="url(#clipEmfPath1)"
       d="m 253.57608,46.899052 h 4.90711 v 4.906558 h -4.90711 z"
       id="path234"
       transform="matrix(0.26458333,0,0,0.26458333,-4.2400722,-6.0665613)" />
    <path
       style="fill:none;stroke:none"
       clip-path="url(#clipEmfPath1)"
       d="m 256.12523,46.899052 h 4.9071 v 4.906558 h -4.9071 z"
       id="path236"
       transform="matrix(0.26458333,0,0,0.26458333,-4.2400722,-6.0665613)" />
    <path
       style="fill:none;stroke:none"
       clip-path="url(#clipEmfPath1)"
       d="m 258.67437,46.899052 h 4.9071 v 4.906558 h -4.9071 z"
       id="path238"
       transform="matrix(0.26458333,0,0,0.26458333,-4.2400722,-6.0665613)" />
    <path
       style="fill:none;stroke:none"
       clip-path="url(#clipEmfPath1)"
       d="m 261.09606,46.899052 h 4.9071 v 4.906558 h -4.9071 z"
       id="path240"
       transform="matrix(0.26458333,0,0,0.26458333,-4.2400722,-6.0665613)" />
    <path
       style="fill:none;stroke:none"
       clip-path="url(#clipEmfPath1)"
       d="m 263.51774,46.899052 h 4.90711 v 4.906558 h -4.90711 z"
       id="path242"
       transform="matrix(0.26458333,0,0,0.26458333,-4.2400722,-6.0665613)" />
    <path
       style="fill:none;stroke:none"
       clip-path="url(#clipEmfPath1)"
       d="m 265.8757,46.899052 h 4.9071 v 4.906558 h -4.9071 z"
       id="path244"
       transform="matrix(0.26458333,0,0,0.26458333,-4.2400722,-6.0665613)" />
    <path
       style="fill:none;stroke:none"
       clip-path="url(#clipEmfPath1)"
       d="m 268.23366,46.899052 h 4.9071 v 4.906558 h -4.9071 z"
       id="path246"
       transform="matrix(0.26458333,0,0,0.26458333,-4.2400722,-6.0665613)" />
    <path
       style="fill:none;stroke:none"
       clip-path="url(#clipEmfPath1)"
       d="m 270.52789,46.899052 h 4.9071 v 4.906558 h -4.9071 z"
       id="path248"
       transform="matrix(0.26458333,0,0,0.26458333,-4.2400722,-6.0665613)" />
    <path
       style="fill:none;stroke:none"
       clip-path="url(#clipEmfPath1)"
       d="m 272.82212,46.899052 h 4.9071 v 4.906558 h -4.9071 z"
       id="path250"
       transform="matrix(0.26458333,0,0,0.26458333,-4.2400722,-6.0665613)" />
    <path
       style="fill:none;stroke:none"
       clip-path="url(#clipEmfPath1)"
       d="m 275.05262,46.899052 h 4.9071 v 4.906558 h -4.9071 z"
       id="path252"
       transform="matrix(0.26458333,0,0,0.26458333,-4.2400722,-6.0665613)" />
    <path
       style="fill:none;stroke:none"
       clip-path="url(#clipEmfPath1)"
       d="m 277.21939,46.899052 h 4.9071 v 4.906558 h -4.9071 z"
       id="path254"
       transform="matrix(0.26458333,0,0,0.26458333,-4.2400722,-6.0665613)" />
    <path
       style="fill:none;stroke:none"
       clip-path="url(#clipEmfPath1)"
       d="m 279.38616,46.899052 h 4.90711 v 4.906558 h -4.90711 z"
       id="path256"
       transform="matrix(0.26458333,0,0,0.26458333,-4.2400722,-6.0665613)" />
    <path
       style="fill:none;stroke:none"
       clip-path="url(#clipEmfPath1)"
       d="m 281.48921,46.899052 h 4.9071 v 4.906558 h -4.9071 z"
       id="path258"
       transform="matrix(0.26458333,0,0,0.26458333,-4.2400722,-6.0665613)" />
    <path
       style="fill:none;stroke:none"
       clip-path="url(#clipEmfPath1)"
       d="m 283.59225,46.899052 h 4.9071 v 4.906558 h -4.9071 z"
       id="path260"
       transform="matrix(0.26458333,0,0,0.26458333,-4.2400722,-6.0665613)" />
    <path
       style="fill:none;stroke:none"
       clip-path="url(#clipEmfPath1)"
       d="m 285.63157,46.899052 h 4.9071 v 4.906558 h -4.9071 z"
       id="path262"
       transform="matrix(0.26458333,0,0,0.26458333,-4.2400722,-6.0665613)" />
    <path
       style="fill:none;stroke:none"
       clip-path="url(#clipEmfPath1)"
       d="m 287.67088,46.899052 h 4.9071 v 4.906558 h -4.9071 z"
       id="path264"
       transform="matrix(0.26458333,0,0,0.26458333,-4.2400722,-6.0665613)" />
    <path
       style="fill:none;stroke:none"
       clip-path="url(#clipEmfPath1)"
       d="m 289.64647,46.899052 h 4.9071 v 4.906558 h -4.9071 z"
       id="path266"
       transform="matrix(0.26458333,0,0,0.26458333,-4.2400722,-6.0665613)" />
    <path
       style="fill:none;stroke:none"
       clip-path="url(#clipEmfPath1)"
       d="m 291.62206,46.899052 h 4.9071 v 4.906558 h -4.9071 z"
       id="path268"
       transform="matrix(0.26458333,0,0,0.26458333,-4.2400722,-6.0665613)" />
    <path
       style="fill:none;stroke:none"
       clip-path="url(#clipEmfPath1)"
       d="m 293.59764,46.899052 h 4.9071 v 4.906558 h -4.9071 z"
       id="path270"
       transform="matrix(0.26458333,0,0,0.26458333,-4.2400722,-6.0665613)" />
    <path
       style="fill:none;stroke:none"
       clip-path="url(#clipEmfPath1)"
       d="m 295.5095,46.899052 h 4.9071 v 4.906558 h -4.9071 z"
       id="path272"
       transform="matrix(0.26458333,0,0,0.26458333,-4.2400722,-6.0665613)" />
    <path
       style="fill:none;stroke:none"
       clip-path="url(#clipEmfPath1)"
       d="m 297.42136,46.899052 h 4.9071 v 4.906558 h -4.9071 z"
       id="path274"
       transform="matrix(0.26458333,0,0,0.26458333,-4.2400722,-6.0665613)" />
    <path
       style="fill:none;stroke:none"
       clip-path="url(#clipEmfPath1)"
       d="m 299.26949,46.899052 h 4.9071 v 4.906558 h -4.9071 z"
       id="path276"
       transform="matrix(0.26458333,0,0,0.26458333,-4.2400722,-6.0665613)" />
    <path
       style="fill:none;stroke:none"
       clip-path="url(#clipEmfPath1)"
       d="m 301.11762,46.899052 h 4.9071 v 4.906558 h -4.9071 z"
       id="path278"
       transform="matrix(0.26458333,0,0,0.26458333,-4.2400722,-6.0665613)" />
    <path
       style="fill:none;stroke:none"
       clip-path="url(#clipEmfPath1)"
       d="m 302.90202,46.899052 h 4.9071 v 4.906558 h -4.9071 z"
       id="path280"
       transform="matrix(0.26458333,0,0,0.26458333,-4.2400722,-6.0665613)" />
    <path
       style="fill:none;stroke:none"
       clip-path="url(#clipEmfPath1)"
       d="m 304.68642,46.899052 h 4.9071 v 4.906558 h -4.9071 z"
       id="path282"
       transform="matrix(0.26458333,0,0,0.26458333,-4.2400722,-6.0665613)" />
    <path
       style="fill:none;stroke:none"
       clip-path="url(#clipEmfPath1)"
       d="m 306.47082,46.899052 h 4.9071 v 4.906558 h -4.9071 z"
       id="path284"
       transform="matrix(0.26458333,0,0,0.26458333,-4.2400722,-6.0665613)" />
    <path
       style="fill:none;stroke:none"
       clip-path="url(#clipEmfPath1)"
       d="m 308.25522,46.899052 h 4.9071 v 4.906558 h -4.9071 z"
       id="path286"
       transform="matrix(0.26458333,0,0,0.26458333,-4.2400722,-6.0665613)" />
    <path
       style="fill:none;stroke:none"
       clip-path="url(#clipEmfPath1)"
       d="m 309.97589,46.899052 h 4.9071 v 4.906558 h -4.9071 z"
       id="path288"
       transform="matrix(0.26458333,0,0,0.26458333,-4.2400722,-6.0665613)" />
    <path
       style="fill:none;stroke:none"
       clip-path="url(#clipEmfPath1)"
       d="m 311.63283,46.899052 h 4.90711 v 4.906558 h -4.90711 z"
       id="path290"
       transform="matrix(0.26458333,0,0,0.26458333,-4.2400722,-6.0665613)" />
    <path
       style="fill:none;stroke:none"
       clip-path="url(#clipEmfPath1)"
       d="m 313.35351,46.899052 h 4.9071 v 4.906558 h -4.9071 z"
       id="path292"
       transform="matrix(0.26458333,0,0,0.26458333,-4.2400722,-6.0665613)" />
    <path
       style="fill:none;stroke:none"
       clip-path="url(#clipEmfPath1)"
       d="m 315.01045,46.899052 h 4.9071 v 4.906558 h -4.9071 z"
       id="path294"
       transform="matrix(0.26458333,0,0,0.26458333,-4.2400722,-6.0665613)" />
    <path
       style="fill:none;stroke:none"
       clip-path="url(#clipEmfPath1)"
       d="m 316.66739,46.899052 h 4.90711 v 4.906558 h -4.90711 z"
       id="path296"
       transform="matrix(0.26458333,0,0,0.26458333,-4.2400722,-6.0665613)" />
    <path
       style="fill:none;stroke:none"
       clip-path="url(#clipEmfPath1)"
       d="m 318.26061,46.899052 h 4.9071 v 4.906558 h -4.9071 z"
       id="path298"
       transform="matrix(0.26458333,0,0,0.26458333,-4.2400722,-6.0665613)" />
    <path
       style="fill:none;stroke:none"
       clip-path="url(#clipEmfPath1)"
       d="m 319.91755,46.899052 h 4.9071 v 4.906558 h -4.9071 z"
       id="path300"
       transform="matrix(0.26458333,0,0,0.26458333,-4.2400722,-6.0665613)" />
    <path
       style="fill:none;stroke:none"
       clip-path="url(#clipEmfPath1)"
       d="m 321.51077,46.899052 h 4.9071 v 4.906558 h -4.9071 z"
       id="path302"
       transform="matrix(0.26458333,0,0,0.26458333,-4.2400722,-6.0665613)" />
    <path
       style="fill:none;stroke:none"
       clip-path="url(#clipEmfPath1)"
       d="m 323.04025,46.899052 h 4.9071 v 4.906558 h -4.9071 z"
       id="path304"
       transform="matrix(0.26458333,0,0,0.26458333,-4.2400722,-6.0665613)" />
    <path
       style="fill:none;stroke:none"
       clip-path="url(#clipEmfPath1)"
       d="m 324.63347,46.899052 h 4.9071 v 4.906558 h -4.9071 z"
       id="path306"
       transform="matrix(0.26458333,0,0,0.26458333,-4.2400722,-6.0665613)" />
    <path
       style="fill:none;stroke:none"
       clip-path="url(#clipEmfPath1)"
       d="m 326.16295,46.899052 h 4.90711 v 4.906558 h -4.90711 z"
       id="path308"
       transform="matrix(0.26458333,0,0,0.26458333,-4.2400722,-6.0665613)" />
    <path
       style="fill:none;stroke:none"
       clip-path="url(#clipEmfPath1)"
       d="m 327.62871,46.899052 h 4.9071 v 4.906558 h -4.9071 z"
       id="path310"
       transform="matrix(0.26458333,0,0,0.26458333,-4.2400722,-6.0665613)" />
    <path
       style="fill:none;stroke:none"
       clip-path="url(#clipEmfPath1)"
       d="m 329.1582,46.899052 h 4.9071 v 4.906558 h -4.9071 z"
       id="path312"
       transform="matrix(0.26458333,0,0,0.26458333,-4.2400722,-6.0665613)" />
    <path
       style="fill:none;stroke:none"
       clip-path="url(#clipEmfPath1)"
       d="m 330.62396,46.899052 h 4.9071 v 4.906558 h -4.9071 z"
       id="path314"
       transform="matrix(0.26458333,0,0,0.26458333,-4.2400722,-6.0665613)" />
    <path
       style="fill:none;stroke:none"
       clip-path="url(#clipEmfPath1)"
       d="m 332.08971,46.899052 h 4.90711 v 4.906558 h -4.90711 z"
       id="path316"
       transform="matrix(0.26458333,0,0,0.26458333,-4.2400722,-6.0665613)" />
    <path
       style="fill:none;stroke:none"
       clip-path="url(#clipEmfPath1)"
       d="m 333.55547,46.899052 h 4.9071 v 4.906558 h -4.9071 z"
       id="path318"
       transform="matrix(0.26458333,0,0,0.26458333,-4.2400722,-6.0665613)" />
    <path
       style="fill:none;stroke:none"
       clip-path="url(#clipEmfPath1)"
       d="m 335.02123,46.899052 h 4.9071 v 4.906558 h -4.9071 z"
       id="path320"
       transform="matrix(0.26458333,0,0,0.26458333,-4.2400722,-6.0665613)" />
    <path
       style="fill:none;stroke:none"
       clip-path="url(#clipEmfPath1)"
       d="m 336.42326,46.899052 h 4.9071 v 4.906558 h -4.9071 z"
       id="path322"
       transform="matrix(0.26458333,0,0,0.26458333,-4.2400722,-6.0665613)" />
    <path
       style="fill:none;stroke:none"
       clip-path="url(#clipEmfPath1)"
       d="m 337.82529,46.899052 h 4.9071 v 4.906558 h -4.9071 z"
       id="path324"
       transform="matrix(0.26458333,0,0,0.26458333,-4.2400722,-6.0665613)" />
    <path
       style="fill:none;stroke:none"
       clip-path="url(#clipEmfPath1)"
       d="m 339.22732,46.899052 h 4.9071 v 4.906558 h -4.9071 z"
       id="path326"
       transform="matrix(0.26458333,0,0,0.26458333,-4.2400722,-6.0665613)" />
    <path
       style="fill:none;stroke:none"
       clip-path="url(#clipEmfPath1)"
       d="m 340.62935,46.899052 h 4.9071 v 4.906558 h -4.9071 z"
       id="path328"
       transform="matrix(0.26458333,0,0,0.26458333,-4.2400722,-6.0665613)" />
    <path
       style="fill:none;stroke:none"
       clip-path="url(#clipEmfPath1)"
       d="m 342.03137,46.899052 h 4.90711 v 4.906558 h -4.90711 z"
       id="path330"
       transform="matrix(0.26458333,0,0,0.26458333,-4.2400722,-6.0665613)" />
    <path
       style="fill:none;stroke:none"
       clip-path="url(#clipEmfPath1)"
       d="m 343.36967,46.899052 h 4.90711 v 4.906558 h -4.90711 z"
       id="path332"
       transform="matrix(0.26458333,0,0,0.26458333,-4.2400722,-6.0665613)" />
    <path
       style="fill:none;stroke:none"
       clip-path="url(#clipEmfPath1)"
       d="m 344.70798,46.899052 h 4.9071 v 4.906558 h -4.9071 z"
       id="path334"
       transform="matrix(0.26458333,0,0,0.26458333,-4.2400722,-6.0665613)" />
    <path
       style="fill:none;stroke:none"
       clip-path="url(#clipEmfPath1)"
       d="m 346.04628,46.899052 h 4.9071 v 4.906558 h -4.9071 z"
       id="path336"
       transform="matrix(0.26458333,0,0,0.26458333,-4.2400722,-6.0665613)" />
    <path
       style="fill:none;stroke:none"
       clip-path="url(#clipEmfPath1)"
       d="m 347.32085,46.899052 h 4.9071 v 4.906558 h -4.9071 z"
       id="path338"
       transform="matrix(0.26458333,0,0,0.26458333,-4.2400722,-6.0665613)" />
    <path
       style="fill:none;stroke:none"
       clip-path="url(#clipEmfPath1)"
       d="m 348.65915,46.899052 h 4.9071 v 4.906558 h -4.9071 z"
       id="path340"
       transform="matrix(0.26458333,0,0,0.26458333,-4.2400722,-6.0665613)" />
    <path
       style="fill:none;stroke:none"
       clip-path="url(#clipEmfPath1)"
       d="m 349.93372,46.899052 h 4.9071 v 4.906558 h -4.9071 z"
       id="path342"
       transform="matrix(0.26458333,0,0,0.26458333,-4.2400722,-6.0665613)" />
    <g
       clip-path="url(#clipEmfPath1)"
       id="g344"
       transform="matrix(0.26458333,0,0,0.26458333,-4.2400722,-6.0665613)" />
    <g
       clip-path="url(#clipEmfPath1)"
       id="g346"
       transform="matrix(0.26458333,0,0,0.26458333,-4.2400722,-6.0665613)" />
    <circle
       style="fill:#f14040;fill-opacity:1;fill-rule:evenodd;stroke:#f14040;stroke-width:0.38235px;stroke-linecap:round;stroke-linejoin:round;stroke-miterlimit:10;stroke-dasharray:none;stroke-opacity:1"
       clip-path="url(#clipEmfPath1)"
       cx="339.76901"
       cy="49.288609"
       id="ellipse348"
       r="2.5808651"
       transform="matrix(0.26458333,0,0,0.26458333,-4.2400722,-6.0665613)" />
    <text
       xml:space="preserve"
       style="font-style:normal;font-variant:normal;font-weight:400;font-size:3.10885px;line-height:125%;font-family:Arial;text-align:start;letter-spacing:0px;word-spacing:0px;text-anchor:start;fill:#000000;fill-opacity:1;stroke:none;stroke-width:0.264583"
       transform="rotate(-90)"
       x="-47.378548"
       y="4.1906891"
       id="text354"><tspan
         sodipodi:role="line"
         x="-47.378548"
         y="4.1906891"
         id="tspan352"
         style="stroke-width:0.264583"><tspan
           dx="0"
           dy="0"
           style="font-style:normal;font-variant:normal;font-weight:400;font-size:3.10885px;font-family:Arial;fill:#000000;stroke-width:0.264583"
           id="tspan350">Crystalliser recovery</tspan></tspan></text>
    <text
       xml:space="preserve"
       style="font-style:normal;font-variant:normal;font-weight:400;font-size:3.10885px;line-height:125%;font-family:Arial;text-align:start;letter-spacing:0px;word-spacing:0px;text-anchor:start;fill:#000000;fill-opacity:1;stroke:none;stroke-width:0.264583"
       x="43.562351"
       y="72.229691"
       id="text364"><tspan
         sodipodi:role="line"
         x="43.562351"
         y="72.229691"
         id="tspan362"
         style="stroke-width:0.264583"><tspan
           dx="0"
           dy="0"
           style="font-style:normal;font-variant:normal;font-weight:400;font-size:3.10885px;font-family:Arial;fill:#000000;stroke-width:0.264583"
           id="tspan356">Volume (m</tspan><tspan
           dx="0"
           dy="-1.2644743"
           style="font-style:normal;font-variant:normal;font-weight:400;font-size:2.10013px;font-family:Arial;fill:#000000;stroke-width:0.264583"
           id="tspan358">3</tspan><tspan
           dx="0"
           dy="1.2644743"
           style="font-style:normal;font-variant:normal;font-weight:400;font-size:3.10885px;font-family:Arial;fill:#000000;stroke-width:0.264583"
           id="tspan360">)</tspan></tspan></text>
    <text
       xml:space="preserve"
       style="font-style:normal;font-variant:normal;font-weight:400;font-size:3.10885px;line-height:125%;font-family:Arial;text-align:end;letter-spacing:0px;word-spacing:0px;text-anchor:end;fill:#000000;fill-opacity:1;stroke:none;stroke-width:0.264583;"
       x="86.59771"
       y="11.216087"
       id="text364-9"><tspan
         sodipodi:role="line"
         x="73.303123"
         y="11.216087"
         id="tspan362-4"
         style="stroke-width:0.264583;text-anchor:end;text-align:end;">Operating</tspan><tspan
         sodipodi:role="line"
         x="73.303123"
         y="15.10215"
         style="stroke-width:0.264583;text-anchor:end;text-align:end;"
         id="tspan577">point</tspan></text>
  </g>
</svg>
